<svg width="4334" height="724" viewBox="0 0 4334 724" fill="none" xmlns="http://www.w3.org/2000/svg">
<path d="M4135.27 448.762L4240.48 174.104H4333.58L4105.47 723.42H4005.85L4086.85 534.418L3926.71 174.104H4028.2L4135.27 448.762ZM2163.29 321.922C2185.63 321.922 2203.75 340.039 2203.75 362.385L2203.75 407.187C2203.75 457.637 2183.71 506.022 2148.03 541.696C2112.36 577.37 2063.97 597.412 2013.52 597.412C1963.07 597.412 1914.69 577.371 1879.01 541.697C1843.34 506.023 1823.3 457.637 1823.3 407.187L1823.3 362.384C1823.3 340.038 1841.41 321.922 1863.76 321.922C1886.1 321.922 1904.22 340.039 1904.22 362.385L1904.22 407.187C1904.22 436.175 1915.74 463.978 1936.23 484.476C1956.73 504.973 1984.53 516.49 2013.52 516.49C2042.51 516.49 2070.31 504.974 2090.81 484.476C2111.31 463.978 2122.83 436.175 2122.83 407.187V362.385C2122.83 340.039 2140.94 321.922 2163.29 321.922ZM3472.35 168.519C3525.73 168.519 3567.01 184.967 3596.18 217.864C3625.35 250.761 3639.94 296.382 3639.94 354.728V389.176H3396.94C3401.9 443.176 3441.94 470.177 3517.04 470.177C3564.21 470.177 3599.9 467.073 3624.11 460.866V526.971C3590.59 536.281 3550.87 540.937 3504.94 540.937C3444.11 540.936 3395.69 524.178 3359.69 490.66C3324.31 456.522 3306.62 411.211 3306.62 354.728C3306.62 317.486 3314.38 284.589 3329.9 256.037C3345.42 228.106 3365.59 206.692 3390.42 191.795C3415.25 176.278 3442.56 168.519 3472.35 168.519ZM151.76 168.519C177.208 168.519 207.933 172.863 243.934 181.553V256.968C204.83 246.416 174.416 241.14 152.691 241.14C127.864 241.14 109.553 243.622 97.7598 248.588C88.4494 252.933 83.7941 260.071 83.7939 270.002C83.7939 279.933 89.6905 288.002 101.483 294.209C108.311 298.554 126.312 305.382 155.484 314.692L174.105 320.278C201.416 328.347 222.519 336.106 237.416 343.555C252.313 350.382 264.416 360.624 273.727 374.279C283.037 387.935 287.692 406.555 287.692 430.142C287.692 464.28 273.727 491.28 245.796 511.143C218.485 530.384 178.76 540.005 126.622 540.005C91.8631 540.005 54.0001 532.867 13.0342 518.591V437.59C63.3105 454.969 102.725 463.659 131.277 463.659C157.967 463.659 176.278 460.867 186.209 455.28C196.761 449.694 202.036 441.004 202.036 429.211C202.036 420.521 197.071 414.004 187.14 409.659C178.45 405.314 162.002 399.107 137.795 391.038C110.484 382.969 87.5183 374.589 68.8975 365.899C22.966 345.416 7.22214e-05 312.21 0 266.278C0 235.244 12.4143 211.347 37.2422 194.588C62.07 177.209 100.242 168.519 151.76 168.519ZM1218.28 168.519C1243.73 168.519 1274.45 172.863 1310.45 181.553V256.968C1271.35 246.416 1240.93 241.14 1219.21 241.14C1194.38 241.14 1176.07 243.622 1164.28 248.588C1154.97 252.933 1150.31 260.071 1150.31 270.002C1150.31 279.933 1156.21 288.002 1168 294.209C1174.83 298.554 1192.83 305.382 1222 314.692L1240.62 320.278C1267.93 328.347 1289.04 336.106 1303.93 343.555C1318.83 350.382 1330.93 360.624 1340.25 374.279C1349.56 387.935 1354.21 406.555 1354.21 430.142C1354.21 464.28 1340.24 491.28 1312.31 511.143C1285 530.384 1245.28 540.005 1193.14 540.005C1158.38 540.005 1120.52 532.867 1079.55 518.591V437.59C1129.83 454.969 1169.24 463.659 1197.8 463.659C1224.49 463.659 1242.8 460.866 1252.73 455.28C1263.28 449.694 1268.55 441.004 1268.55 429.211C1268.55 420.521 1263.59 414.004 1253.66 409.659C1244.97 405.314 1228.52 399.107 1204.31 391.038C1177 382.969 1154.04 374.589 1135.42 365.899C1089.48 345.416 1066.52 312.21 1066.52 266.278C1066.52 235.244 1078.93 211.347 1103.76 194.588C1128.59 177.208 1166.76 168.519 1218.28 168.519ZM413.042 380.796C413.042 404.382 418.317 422.693 428.869 435.728C440.042 448.141 456.491 454.349 478.215 454.349C504.905 454.349 530.974 447.21 556.422 432.935V174.104H643.94V532.556H573.181L571.319 497.176C543.388 510.21 521.663 519.211 506.146 524.177C490.628 528.522 473.559 530.694 454.938 530.694C407.766 530.694 374.248 517.659 354.386 491.59C334.524 465.521 324.593 424.555 324.593 368.692V174.104H413.042V380.796ZM770.388 174.104C790.25 164.173 818.492 159.208 855.113 159.208C880.562 159.208 908.182 165.415 937.976 177.829C966.528 190.864 988.873 211.967 1005.01 241.14C1021.15 269.692 1029.22 304.14 1029.22 344.485C1029.22 402.21 1013.08 447.832 980.804 481.35C949.148 514.246 904.458 530.694 846.733 530.694C815.078 530.694 783.422 521.385 751.767 502.764L750.836 531.626H681.008V19.5518H770.388V174.104ZM1576.39 168.519C1617.35 168.519 1651.8 174.415 1679.73 186.208V256.968C1656.77 249.519 1639.7 244.554 1628.53 242.071C1617.97 239.589 1605.56 238.347 1591.29 238.347C1555.91 238.347 1528.91 247.347 1510.28 265.347C1492.28 283.347 1483.28 310.037 1483.28 345.417C1483.28 379.555 1492.9 407.487 1512.15 429.211C1532.01 450.314 1558.39 460.866 1591.29 460.866C1605.56 460.866 1617.97 459.625 1628.53 457.143C1639.7 454.66 1656.77 449.693 1679.73 442.245V513.005C1648.08 525.419 1613.63 531.626 1576.39 531.626C1520.53 531.626 1475.52 514.556 1441.39 480.418C1407.87 446.28 1391.11 401.279 1391.11 345.417C1391.11 289.554 1407.56 246.105 1440.46 215.07C1473.35 184.036 1518.66 168.519 1576.39 168.519ZM2895.52 531.626H2806.14V174.105H2895.52V531.626ZM2714.6 174.104C2725.78 174.104 2739.12 175.655 2754.64 178.759V266.277C2734.16 255.105 2709.95 249.519 2682.02 249.519C2663.4 249.519 2643.84 252.932 2623.36 259.76V531.625H2534.91V266.277C2534.29 234.001 2551.36 210.725 2586.12 196.449C2620.88 181.553 2660.91 174.104 2706.22 174.104H2714.6ZM3115.35 437.59L3199.15 174.104H3292.25L3159.11 531.625H3068.8L2931.01 174.104H3030.63L3115.35 437.59ZM3856.59 174.104C3867.76 174.104 3881.1 175.655 3896.62 178.759V266.277C3876.14 255.105 3851.93 249.519 3824 249.519C3805.38 249.519 3785.83 252.932 3765.34 259.76V531.625H3676.9V266.277C3676.27 234.001 3693.34 210.725 3728.1 196.449C3762.86 181.553 3802.9 174.104 3848.21 174.104H3856.59ZM834.63 229.036C807.94 229.036 786.526 233.071 770.388 241.14V443.177C787.767 454.97 808.25 460.866 831.837 460.866C865.975 460.866 892.044 451.555 910.044 432.935C928.665 413.693 937.976 385.762 937.976 349.141C937.975 269.071 903.527 229.036 834.63 229.036ZM2156.93 125.689C2207.38 125.69 2255.77 145.731 2291.44 181.405C2327.11 217.079 2347.16 265.465 2347.16 315.915V360.719C2347.15 383.064 2329.04 401.178 2306.69 401.179C2284.35 401.179 2266.23 383.064 2266.23 360.719V315.915C2266.23 286.927 2254.72 259.124 2234.22 238.626C2213.72 218.128 2185.92 206.613 2156.93 206.612C2127.94 206.612 2100.14 218.127 2079.64 238.625C2059.14 259.123 2047.63 286.926 2047.63 315.915L2047.63 360.718C2047.63 383.063 2029.51 401.179 2007.17 401.18C1984.82 401.179 1966.7 383.063 1966.7 360.718V315.915C1966.7 265.464 1986.74 217.078 2022.42 181.404C2058.09 145.73 2106.48 125.69 2156.93 125.689ZM3474.21 238.347C3453.73 238.347 3436.35 246.727 3422.07 263.485C3407.8 279.623 3400.04 300.727 3398.8 326.796H3551.49C3551.49 298.865 3544.66 277.14 3531.01 261.623C3517.35 246.106 3498.42 238.347 3474.21 238.347ZM2582.4 177.828C2570.6 181.552 2560.05 186.829 2550.74 193.656C2542.05 200.484 2536.46 207.311 2533.98 214.139L2533.05 177.828H2582.4ZM3724.38 177.828C3712.59 181.552 3702.03 186.829 3692.72 193.656C3684.03 200.484 3678.45 207.311 3675.96 214.139L3675.03 177.828H3724.38ZM2850.83 0C2866.97 7.22623e-05 2880.32 5.58646 2890.87 16.7588C2902.04 27.3106 2907.63 40.6559 2907.63 56.7939C2907.63 72.3113 2902.04 85.6566 2890.87 96.8291C2880.32 108.001 2866.97 113.587 2850.83 113.587C2835.32 113.587 2821.97 108.001 2810.8 96.8291C2799.63 85.6566 2794.04 72.3113 2794.04 56.7939C2794.04 40.6559 2799.63 27.3106 2810.8 16.7588C2821.97 5.58627 2835.32 0 2850.83 0Z" fill="#5A2898"/>
</svg>
