<svg width="810" height="729" viewBox="0 0 810 729" fill="none" xmlns="http://www.w3.org/2000/svg">
<path d="M587.804 434.926C587.804 512.873 556.839 587.629 501.722 642.746C446.604 697.863 371.849 728.828 293.901 728.828C215.954 728.828 141.198 697.863 86.0811 642.746C30.9644 587.629 1.57675e-05 512.873 0 434.926V365.706C0.000405527 331.181 27.9889 303.193 62.5137 303.192C97.0384 303.193 125.026 331.18 125.026 365.705L125.027 434.926C125.027 479.714 142.82 522.668 174.489 554.338C206.159 586.008 249.113 603.801 293.901 603.801C338.689 603.801 381.644 586.009 413.314 554.339C444.984 522.669 462.776 479.715 462.776 434.927L462.777 365.705C462.778 331.181 490.765 303.192 525.29 303.191C559.815 303.192 587.803 331.18 587.804 365.705V434.926ZM809.372 372.637C809.372 401.907 785.643 425.636 756.372 425.637H737.345C708.074 425.636 684.345 401.907 684.345 372.637V293.902C684.345 249.114 666.552 206.16 634.882 174.49C603.212 142.821 560.258 125.028 515.47 125.028C470.682 125.028 427.728 142.821 396.058 174.49C364.388 206.16 346.595 249.114 346.595 293.901L346.596 372.637C346.596 401.908 322.866 425.637 293.596 425.638L274.568 425.637C245.298 425.637 221.569 401.908 221.568 372.638V293.902C221.569 215.955 252.533 141.199 307.65 86.082C362.768 30.9653 437.524 6.10321e-05 515.471 0C593.418 0.000248133 668.173 30.9654 723.29 86.082C778.407 141.199 809.373 215.955 809.373 293.902L809.372 372.637Z" fill="#E9E1FF"/>
</svg>
