<svg width="2717" height="1012" viewBox="0 0 2717 1012" fill="none" xmlns="http://www.w3.org/2000/svg">
<path d="M2561.83 798.242L2643.8 584.483H2716.34L2538.62 1012H2461L2524.11 864.905L2399.34 584.483H2478.41L2561.83 798.242ZM2045.33 580.136C2086.92 580.136 2119.08 592.937 2141.81 618.54C2164.54 644.143 2175.9 679.648 2175.9 725.057V751.867H1986.57C1990.44 793.894 2021.63 814.907 2080.15 814.907C2116.9 814.907 2144.71 812.493 2163.57 807.662V859.108C2137.46 866.354 2106.51 869.978 2070.72 869.978C2023.33 869.978 1985.61 856.934 1957.56 830.849C1929.99 804.28 1916.21 769.016 1916.21 725.057C1916.21 696.073 1922.25 670.47 1934.34 648.249C1946.43 626.511 1962.15 609.845 1981.5 598.251C2000.84 586.174 2022.12 580.136 2045.33 580.136ZM1205.69 580.136C1237.61 580.136 1264.45 584.725 1286.21 593.903V648.974C1268.32 643.177 1255.02 639.312 1246.32 637.38C1238.1 635.448 1228.42 634.481 1217.3 634.481C1189.74 634.481 1168.7 641.486 1154.19 655.495C1140.17 669.504 1133.15 690.276 1133.15 717.811C1133.15 744.379 1140.65 766.118 1155.64 783.025C1171.12 799.45 1191.67 807.662 1217.3 807.662C1228.42 807.662 1238.1 806.696 1246.32 804.764C1255.02 802.831 1268.32 798.967 1286.21 793.17V848.239C1261.55 857.901 1234.71 862.731 1205.69 862.731C1162.17 862.731 1127.11 849.447 1100.51 822.878C1074.4 796.309 1061.34 761.287 1061.34 717.811C1061.34 674.334 1074.15 640.52 1099.79 616.366C1125.42 592.213 1160.72 580.136 1205.69 580.136ZM1454.95 584.483C1463.65 584.483 1474.05 585.691 1486.14 588.106V656.22C1470.18 647.524 1451.32 643.177 1429.56 643.177C1415.05 643.177 1399.82 645.834 1383.86 651.147V862.731H1314.95V656.22C1314.46 631.1 1327.76 612.985 1354.84 601.874C1381.93 590.28 1413.12 584.483 1448.42 584.483H1454.95ZM1595.91 862.731H1526.27V584.483H1595.91V862.731ZM1767.18 789.547L1832.47 584.483H1905.01L1801.28 862.731H1730.91L1623.55 584.483H1701.17L1767.18 789.547ZM2344.7 584.483C2353.4 584.483 2363.8 585.691 2375.89 588.106V656.22C2359.93 647.525 2341.07 643.177 2319.31 643.177C2304.8 643.177 2289.57 645.834 2273.61 651.147V862.731H2204.7V656.22C2204.21 631.1 2217.51 612.985 2244.59 601.874C2271.68 590.28 2302.87 584.483 2338.17 584.483H2344.7ZM591.258 377.91C630.119 377.91 661.623 409.413 661.623 448.274L661.622 526.188C661.622 613.925 626.768 698.068 564.729 760.107C502.691 822.146 418.548 857 330.812 857C243.075 857 158.931 822.146 96.8916 760.107C34.8527 698.068 7.35458e-07 613.924 0 526.188V448.275C6.22984e-06 409.414 31.5033 377.911 70.3643 377.911C109.225 377.911 140.728 409.414 140.728 448.275L140.729 526.188C140.729 576.601 160.755 624.949 196.401 660.597C232.049 696.244 280.399 716.271 330.812 716.271C381.224 716.271 429.573 696.244 465.22 660.597C500.867 624.949 520.892 576.601 520.893 526.188L520.894 448.274C520.894 409.413 552.397 377.91 591.258 377.91ZM2046.78 634.481C2030.82 634.481 2017.28 641.003 2006.16 654.046C1995.04 666.606 1988.99 683.03 1988.02 703.318H2106.99C2106.99 681.58 2101.67 664.673 2091.03 652.597C2080.39 640.52 2065.64 634.481 2046.78 634.481ZM1351.94 587.382C1342.75 590.28 1334.53 594.387 1327.28 599.7C1320.51 605.014 1316.16 610.328 1314.22 615.642L1313.5 587.382H1351.94ZM2241.69 587.382C2232.5 590.28 2224.28 594.386 2217.03 599.7C2210.26 605.014 2205.91 610.328 2203.97 615.642L2203.25 587.382H2241.69ZM1561.09 448.982C1573.66 448.982 1584.06 453.33 1592.28 462.025C1600.99 470.238 1605.34 480.624 1605.34 493.184C1605.34 505.26 1600.99 515.647 1592.28 524.342C1584.06 533.037 1573.66 537.385 1561.09 537.385C1549 537.385 1538.6 533.037 1529.9 524.342C1521.19 515.647 1516.84 505.26 1516.84 493.184C1516.84 480.624 1521.19 470.238 1529.9 462.025C1538.6 453.33 1549 448.982 1561.09 448.982ZM580.202 36.6377C667.938 36.6379 752.081 71.4908 814.12 133.529C876.159 195.568 911.013 279.714 911.013 367.45V445.362C911.013 484.223 879.51 515.726 840.648 515.727C801.787 515.726 770.284 484.222 770.284 445.361L770.285 367.449C770.285 317.036 750.257 268.687 714.609 233.04C678.962 197.393 630.615 177.366 580.202 177.366C529.789 177.366 481.44 197.394 445.793 233.041C410.146 268.688 390.118 317.037 390.118 367.449V445.362C390.118 484.224 358.615 515.726 319.754 515.727C280.893 515.726 249.39 484.223 249.39 445.362V367.448C249.39 279.712 284.244 195.569 346.282 133.53C408.321 71.4914 492.466 36.6379 580.202 36.6377ZM1179.58 115.937C1199.41 115.937 1223.35 119.318 1251.39 126.081V184.774C1220.93 176.562 1197.23 172.456 1180.3 172.456C1160.96 172.456 1146.69 174.388 1137.51 178.253C1130.25 181.634 1126.63 187.189 1126.62 194.918C1126.62 202.647 1131.22 208.927 1140.41 213.758C1145.73 217.139 1159.75 222.453 1182.48 229.699L1196.99 234.047C1218.27 240.327 1234.71 246.365 1246.32 252.162C1257.92 257.476 1267.35 265.447 1274.61 276.074C1281.86 286.702 1285.49 301.194 1285.49 319.551C1285.49 346.119 1274.61 367.133 1252.84 382.591C1231.57 397.566 1200.62 405.054 1159.99 405.054C1132.91 405.054 1103.41 399.498 1071.49 388.388V325.348C1110.67 338.874 1141.38 345.636 1163.62 345.636C1184.42 345.636 1198.68 343.462 1206.42 339.114C1214.64 334.767 1218.75 328.004 1218.75 318.826C1218.75 312.063 1214.88 306.991 1207.14 303.609C1200.37 300.228 1187.56 295.397 1168.7 289.117C1147.42 282.837 1129.53 276.316 1115.02 269.553C1079.23 253.612 1061.34 227.767 1061.34 192.021C1061.34 167.867 1071.01 149.268 1090.35 136.226C1109.7 122.7 1139.44 115.937 1179.58 115.937ZM2010.53 115.937C2030.36 115.937 2054.3 119.318 2082.35 126.081V184.774C2051.88 176.562 2028.18 172.456 2011.26 172.456C1991.91 172.456 1977.65 174.388 1968.46 178.253C1961.21 181.634 1957.58 187.189 1957.58 194.918C1957.58 202.647 1962.17 208.927 1971.36 213.758C1976.68 217.139 1990.71 222.453 2013.44 229.699L2027.94 234.047C2049.22 240.327 2065.66 246.365 2077.27 252.162C2088.88 257.476 2098.31 265.447 2105.56 276.074C2112.82 286.702 2116.44 301.194 2116.44 319.551C2116.44 346.119 2105.56 367.133 2083.8 382.591C2062.52 397.566 2031.57 405.054 1990.95 405.054C1963.87 405.054 1934.37 399.498 1902.45 388.388V325.348C1941.62 338.874 1972.33 345.636 1994.58 345.636C2015.37 345.636 2029.64 343.462 2037.37 339.114C2045.59 334.767 2049.7 328.004 2049.71 318.826C2049.71 312.063 2045.84 306.991 2038.1 303.609C2031.33 300.228 2018.51 295.397 1999.65 289.117C1978.37 282.837 1960.48 276.316 1945.97 269.553C1910.19 253.612 1892.29 227.767 1892.29 192.021C1892.29 167.867 1901.96 149.268 1921.31 136.226C1940.65 122.7 1970.39 115.937 2010.53 115.937ZM1383.15 281.146C1383.15 299.503 1387.26 313.754 1395.48 323.898C1404.19 333.56 1417 338.39 1433.93 338.39C1454.72 338.39 1475.04 332.835 1494.86 321.725V120.284H1563.05V399.257H1507.92L1506.47 371.722C1484.71 381.866 1467.78 388.871 1455.69 392.735C1443.6 396.117 1430.3 397.808 1415.79 397.808C1379.04 397.808 1352.93 387.663 1337.45 367.374C1321.98 347.085 1314.24 315.203 1314.24 271.727V120.284H1383.15V281.146ZM1661.57 120.284C1677.04 112.555 1699.05 108.69 1727.58 108.69C1747.41 108.69 1768.93 113.521 1792.14 123.183C1814.39 133.327 1831.8 149.752 1844.37 172.456C1856.94 194.677 1863.23 221.487 1863.23 252.887C1863.23 297.812 1850.66 333.318 1825.51 359.403C1800.85 385.006 1766.03 397.808 1721.05 397.808C1696.39 397.808 1671.73 390.561 1647.06 376.069L1646.34 398.532H1591.93V0H1661.57V120.284ZM1711.62 163.036C1690.83 163.036 1674.14 166.176 1661.57 172.456V329.694C1675.11 338.873 1691.07 343.462 1709.45 343.462C1736.04 343.462 1756.36 336.216 1770.38 321.725C1784.89 306.749 1792.14 285.011 1792.14 256.51C1792.14 194.194 1765.3 163.036 1711.62 163.036Z" fill="#E9E1FF"/>
</svg>
