<svg width="68" height="55" viewBox="0 0 68 55" fill="none" xmlns="http://www.w3.org/2000/svg">
<path d="M23.091 44.3347C23.091 43.0284 22.5718 41.7753 21.6481 40.8515C20.7244 39.9278 19.4713 39.4087 18.1649 39.4087C16.8585 39.4087 15.6055 39.9277 14.6817 40.8515C13.7579 41.7753 13.2389 43.0283 13.2389 44.3347C13.2389 45.6411 13.758 46.8942 14.6817 47.8179C15.6055 48.7416 16.8586 49.2608 18.1649 49.2608C19.4713 49.2607 20.7244 48.7417 21.6481 47.8179C22.5719 46.8942 23.0909 45.6411 23.091 44.3347ZM53.8781 44.3347C53.8781 43.0283 53.359 41.7753 52.4352 40.8515C51.5114 39.9277 50.2584 39.4087 48.952 39.4087C47.6456 39.4087 46.3926 39.9278 45.4688 40.8515C44.5451 41.7753 44.026 43.0284 44.026 44.3347C44.026 45.6411 44.5451 46.8942 45.4688 47.8179C46.3926 48.7417 47.6457 49.2607 48.952 49.2608C50.2584 49.2608 51.5115 48.7416 52.4352 47.8179C53.359 46.8942 53.878 45.6411 53.8781 44.3347ZM28.6329 44.3347C28.6329 47.1109 27.5295 49.7732 25.5665 51.7363C23.6034 53.6993 20.9411 54.8027 18.1649 54.8027C15.3888 54.8027 12.7265 53.6993 10.7634 51.7363C8.80032 49.7732 7.69695 47.1109 7.6969 44.3347C7.6969 41.5585 8.80028 38.8963 10.7634 36.9332C12.7265 34.9701 15.3887 33.8667 18.1649 33.8667C20.9411 33.8667 23.6034 34.9701 25.5665 36.9332C27.5295 38.8963 28.6329 41.5586 28.6329 44.3347ZM59.42 44.3347C59.42 47.1109 58.3166 49.7732 56.3536 51.7363C54.3905 53.6993 51.7282 54.8027 48.952 54.8027C46.1758 54.8027 43.5135 53.6993 41.5505 51.7363C39.5874 49.7732 38.484 47.1109 38.484 44.3347C38.484 41.5586 39.5875 38.8963 41.5505 36.9332C43.5135 34.9701 46.1758 33.8667 48.952 33.8667C51.7283 33.8667 54.3905 34.9701 56.3536 36.9332C58.3166 38.8963 59.42 41.5585 59.42 44.3347Z" fill="#F3EFEF"/>
<path d="M7.30875e-06 36.6376V30.4797C7.30875e-06 28.9493 1.24062 27.7087 2.77099 27.7087C4.30136 27.7087 5.54197 28.9493 5.54197 30.4797V36.6376C5.54197 38.1274 5.54466 39.0592 5.60799 39.7582C5.65297 40.2542 5.71796 40.4777 5.75845 40.5765L5.78984 40.6392L5.92406 40.8406C6.07117 41.0322 6.25469 41.1942 6.46526 41.3158H6.46635C6.51051 41.3412 6.68724 41.4367 7.34635 41.4965C8.04539 41.5599 8.97768 41.5625 10.468 41.5625C11.9981 41.5626 13.2387 42.8034 13.239 44.3335C13.239 45.8638 11.9983 47.1044 10.468 47.1045C9.07989 47.1045 7.85357 47.1081 6.84627 47.0168C5.93133 46.9339 4.99106 46.7596 4.08179 46.3198L3.69429 46.1152C2.57125 45.4667 1.63998 44.5332 0.991498 43.4102L0.990416 43.4113C0.39686 42.3837 0.18358 41.3048 0.0887652 40.2593C-0.00255547 39.2521 6.81462e-06 38.0257 7.30875e-06 36.6376ZM41.2551 41.5625C42.7853 41.5625 44.0258 42.8034 44.0261 44.3335C44.0261 45.8639 42.7855 47.1045 41.2551 47.1045H25.861C24.3309 47.1042 23.0901 45.8637 23.0901 44.3335C23.0903 42.8036 24.3311 41.5628 25.861 41.5625H41.2551ZM61.5753 36.6376V28.4199C61.5753 27.0276 61.5518 26.8123 61.5082 26.649C61.461 26.4849 61.3671 26.2812 60.6552 25.0925L55.425 16.3802L55.4239 16.3791C54.7388 15.2368 54.3249 14.5502 53.9627 14.0606C53.6363 13.6195 53.4812 13.5219 53.4095 13.4815L53.4041 13.4793C53.3295 13.437 53.1636 13.3539 52.6172 13.3007C52.0109 13.2418 51.2092 13.239 49.8787 13.239H45.5653V38.1768C45.5652 39.707 44.3246 40.9477 42.7943 40.9477C41.2642 40.9476 40.0235 39.7069 40.0233 38.1768V12.0072C40.0233 9.75062 40.018 8.33779 39.8794 7.30848C39.7516 6.36009 39.5587 6.1627 39.4854 6.08968L39.4789 6.08319C39.4038 6.0079 39.2039 5.81487 38.2547 5.68702C37.2254 5.54843 35.813 5.54198 33.5581 5.54198H2.77099C1.24062 5.54198 7.30875e-06 4.30137 7.30875e-06 2.771C7.30875e-06 1.24063 1.24062 2.19038e-05 2.77099 2.19038e-05H33.5581C35.6563 2.19038e-05 37.5098 -0.00625643 38.995 0.193774C40.5575 0.404243 42.1199 0.887341 43.3951 2.1616L43.6256 2.40406C44.7356 3.63289 45.1739 5.10084 45.3715 6.56811C45.4194 6.92369 45.4548 7.30093 45.482 7.69707H49.8787C51.1032 7.69707 52.218 7.69368 53.1541 7.78474C54.15 7.88165 55.1528 8.09924 56.1372 8.65717H56.1361C57.1214 9.21378 57.8237 9.96153 58.4179 10.7646C58.9767 11.5199 59.5466 12.4779 60.1757 13.5269L65.407 22.2404L65.4081 22.2425C65.9164 23.0913 66.4134 23.8906 66.7254 24.7743L66.8477 25.1586L66.852 25.1748C67.1394 26.2232 67.1172 27.2933 67.1172 28.4199V36.6376C67.1172 38.0257 67.1198 39.2521 67.0285 40.2593C66.9337 41.3048 66.7204 42.3836 66.1268 43.4113L66.1257 43.4102C65.4773 44.5333 64.545 45.4656 63.4219 46.1141L63.423 46.1152C62.3952 46.7088 61.3165 46.922 60.271 47.0168C59.2637 47.1082 58.0374 47.1045 56.6492 47.1045C55.1188 47.1045 53.8782 45.8639 53.8782 44.3335C53.8785 42.8034 55.119 41.5625 56.6492 41.5625C58.1394 41.5625 59.0719 41.5599 59.7709 41.4965C60.4312 41.4366 60.6073 41.341 60.6509 41.3158L60.8522 41.1805C61.0438 41.0333 61.2058 40.8498 61.3274 40.6392L61.3577 40.5765C61.3982 40.4778 61.4642 40.2546 61.5093 39.7582C61.5726 39.0592 61.5753 38.1274 61.5753 36.6376ZM15.0856 18.4725C16.616 18.4725 17.8566 19.7131 17.8566 21.2435C17.8566 22.7738 16.616 24.0145 15.0856 24.0145H2.77099C1.24062 24.0145 1.53065e-05 22.7738 7.30875e-06 21.2435C7.30875e-06 19.7131 1.24062 18.4725 2.77099 18.4725H15.0856ZM21.2435 9.23626C22.7738 9.23627 24.0144 10.4769 24.0144 12.0072C24.0144 13.5376 22.7738 14.7782 21.2435 14.7782H2.77099C1.24062 14.7782 1.13076e-05 13.5376 7.30875e-06 12.0072C7.30875e-06 10.4769 1.24062 9.23626 2.77099 9.23626H21.2435Z" fill="#F3EFEF"/>
</svg>
