<svg width="65" height="64" viewBox="0 0 65 64" fill="none" xmlns="http://www.w3.org/2000/svg">
<path d="M32.3646 48.0001C33.3125 48.0001 34.1142 47.6774 34.7696 47.032C35.425 46.3867 35.7518 45.5983 35.75 44.6667C35.7482 43.7352 35.4214 42.9458 34.7696 42.2987C34.1178 41.6516 33.3161 41.3298 32.3646 41.3334C31.4131 41.3369 30.6123 41.6596 29.9623 42.3014C29.3123 42.9432 28.9846 43.7316 28.9792 44.6667C28.9738 45.6018 29.3015 46.3912 29.9623 47.0347C30.6231 47.6783 31.4239 48.0001 32.3646 48.0001ZM32.5 58.6667C28.7535 58.6667 25.2327 57.9663 21.9375 56.5654C18.6424 55.1645 15.7761 53.2649 13.3386 50.8667C10.9011 48.4685 8.97183 45.6463 7.55086 42.4C6.12989 39.1538 5.4185 35.6872 5.41669 32C5.41488 28.3129 6.12627 24.8463 7.55086 21.6C8.97544 18.3538 10.9047 15.5316 13.3386 13.1334C15.7725 10.7352 18.6388 8.8356 21.9375 7.43471C25.2363 6.03382 28.7571 5.33337 32.5 5.33337C36.2429 5.33337 39.7638 6.03382 43.0625 7.43471C46.3613 8.8356 49.2276 10.7352 51.6615 13.1334C54.0954 15.5316 56.0255 18.3538 57.4519 21.6C58.8783 24.8463 59.5888 28.3129 59.5834 32C59.5779 35.6872 58.8666 39.1538 57.4492 42.4C56.0318 45.6463 54.1026 48.4685 51.6615 50.8667C49.2204 53.2649 46.3541 55.1654 43.0625 56.568C39.771 57.9707 36.2502 58.6703 32.5 58.6667ZM32.5 53.3334C38.5486 53.3334 43.6719 51.2667 47.8698 47.1334C52.0677 43 54.1667 37.9556 54.1667 32C54.1667 26.0445 52.0677 21 47.8698 16.8667C43.6719 12.7334 38.5486 10.6667 32.5 10.6667C26.4514 10.6667 21.3282 12.7334 17.1302 16.8667C12.9323 21 10.8334 26.0445 10.8334 32C10.8334 37.9556 12.9323 43 17.1302 47.1334C21.3282 51.2667 26.4514 53.3334 32.5 53.3334ZM32.7709 20.5334C33.8993 20.5334 34.8816 20.8889 35.7175 21.6C36.5535 22.3112 36.9706 23.2 36.9688 24.2667C36.9688 25.2445 36.6645 26.1112 36.0561 26.8667C35.4476 27.6223 34.7588 28.3334 33.9896 29C32.9514 29.8889 32.0378 30.8667 31.2488 31.9334C30.4597 33 30.0643 34.2 30.0625 35.5334C30.0625 36.1556 30.3 36.6783 30.7748 37.1014C31.2497 37.5245 31.8022 37.7352 32.4323 37.7334C33.1094 37.7334 33.6854 37.5112 34.1602 37.0667C34.6351 36.6223 34.9393 36.0667 35.0729 35.4C35.2535 34.4667 35.6597 33.6338 36.2917 32.9014C36.9236 32.1689 37.6007 31.4685 38.3229 30.8C39.3611 29.8223 40.2531 28.7556 40.9988 27.6C41.7445 26.4445 42.1164 25.1556 42.1146 23.7334C42.1146 21.4667 41.1784 19.6116 39.3061 18.168C37.4337 16.7245 35.2553 16.0018 32.7709 16C31.0556 16 29.4197 16.3556 27.8634 17.0667C26.307 17.7778 25.1216 18.8667 24.3073 20.3334C23.9913 20.8667 23.8902 21.4338 24.004 22.0347C24.1177 22.6356 24.422 23.0907 24.9167 23.4C25.5486 23.7556 26.2032 23.8667 26.8802 23.7334C27.5573 23.6 28.1216 23.2223 28.5729 22.6C29.0695 21.9334 29.6906 21.4223 30.4363 21.0667C31.182 20.7112 31.9602 20.5334 32.7709 20.5334Z" fill="#F3EFEF"/>
</svg>
