<svg width="55" height="50" viewBox="0 0 55 50" fill="none" xmlns="http://www.w3.org/2000/svg">
<path fill-rule="evenodd" clip-rule="evenodd" d="M7.72325 9.12268C5.67492 9.12268 3.71048 9.93638 2.26209 11.3848C0.813697 12.8332 0 14.7976 0 16.8459V42.122C0 44.1703 0.813697 46.1348 2.26209 47.5832C3.71048 49.0316 5.67492 49.8453 7.72325 49.8453H47.0416C49.0899 49.8453 51.0544 49.0316 52.5028 47.5832C53.9512 46.1348 54.7648 44.1703 54.7648 42.122V16.8459C54.7648 14.7976 53.9512 12.8332 52.5028 11.3848C51.0544 9.93638 49.0899 9.12268 47.0416 9.12268H7.72325ZM40.0205 25.9734C39.0894 25.9734 38.1965 26.3433 37.5381 27.0016C36.8798 27.66 36.5099 28.5529 36.5099 29.484C36.5099 30.415 36.8798 31.308 37.5381 31.9663C38.1965 32.6247 39.0894 32.9945 40.0205 32.9945C40.9515 32.9945 41.8445 32.6247 42.5028 31.9663C43.1612 31.308 43.531 30.415 43.531 29.484C43.531 28.5529 43.1612 27.66 42.5028 27.0016C41.8445 26.3433 40.9515 25.9734 40.0205 25.9734Z" fill="#F3EFEF"/>
<path d="M39.9783 0.189412C40.8098 -0.0321791 41.6812 -0.0597463 42.525 0.108838C43.3689 0.277422 44.1628 0.63765 44.8453 1.16172C45.5279 1.68579 46.0809 2.35968 46.4617 3.13139C46.8425 3.9031 47.0409 4.75199 47.0416 5.61254H18.957L39.9783 0.189412Z" fill="#F3EFEF"/>
</svg>
