<svg width="72" height="72" viewBox="0 0 72 72" fill="none" xmlns="http://www.w3.org/2000/svg">
<path d="M32.475 66C31.125 66 29.963 65.55 28.989 64.65C28.015 63.75 27.427 62.65 27.225 61.35L26.55 56.4C25.9 56.15 25.288 55.85 24.714 55.5C24.14 55.15 23.577 54.775 23.025 54.375L18.375 56.325C17.125 56.875 15.875 56.925 14.625 56.475C13.375 56.025 12.4 55.225 11.7 54.075L8.175 47.925C7.475 46.775 7.275 45.55 7.575 44.25C7.875 42.95 8.55 41.875 9.6 41.025L13.575 38.025C13.525 37.675 13.5 37.337 13.5 37.011V34.986C13.5 34.662 13.525 34.325 13.575 33.975L9.6 30.975C8.55 30.125 7.875 29.05 7.575 27.75C7.275 26.45 7.475 25.225 8.175 24.075L11.7 17.925C12.4 16.775 13.375 15.975 14.625 15.525C15.875 15.075 17.125 15.125 18.375 15.675L23.025 17.625C23.575 17.225 24.15 16.85 24.75 16.5C25.35 16.15 25.95 15.85 26.55 15.6L27.225 10.65C27.425 9.35 28.013 8.25 28.989 7.35C29.965 6.45 31.127 6 32.475 6H39.525C40.875 6 42.038 6.45 43.014 7.35C43.99 8.25 44.577 9.35 44.775 10.65L45.45 15.6C46.1 15.85 46.713 16.15 47.289 16.5C47.865 16.85 48.427 17.225 48.975 17.625L53.625 15.675C54.875 15.125 56.125 15.075 57.375 15.525C58.625 15.975 59.6 16.775 60.3 17.925L63.825 24.075C64.525 25.225 64.725 26.45 64.425 27.75C64.125 29.05 63.45 30.125 62.4 30.975L58.425 33.975C58.475 34.325 58.5 34.663 58.5 34.989V37.011C58.5 37.337 58.45 37.675 58.35 38.025L62.325 41.025C63.375 41.875 64.05 42.95 64.35 44.25C64.65 45.55 64.45 46.775 63.75 47.925L60.15 54.075C59.45 55.225 58.475 56.025 57.225 56.475C55.975 56.925 54.725 56.875 53.475 56.325L48.975 54.375C48.425 54.775 47.85 55.15 47.25 55.5C46.65 55.85 46.05 56.15 45.45 56.4L44.775 61.35C44.575 62.65 43.988 63.75 43.014 64.65C42.04 65.55 40.877 66 39.525 66H32.475ZM36.15 46.5C39.05 46.5 41.525 45.475 43.575 43.425C45.625 41.375 46.65 38.9 46.65 36C46.65 33.1 45.625 30.625 43.575 28.575C41.525 26.525 39.05 25.5 36.15 25.5C33.2 25.5 30.712 26.525 28.686 28.575C26.66 30.625 25.648 33.1 25.65 36C25.652 38.9 26.665 41.375 28.689 43.425C30.713 45.475 33.2 46.5 36.15 46.5Z" fill="#F3EFEF"/>
</svg>
