<svg width="57" height="45" viewBox="0 0 57 45" fill="none" xmlns="http://www.w3.org/2000/svg">
<path fill-rule="evenodd" clip-rule="evenodd" d="M0 38.8636C0 42.2509 2.72786 45 6.099 45H50.901C54.2721 45 57 42.2509 57 38.8636V30.5427C57.0004 30.0933 56.8535 29.6562 56.5819 29.2991C56.3104 28.9419 55.9293 28.6846 55.4976 28.5668C54.1727 28.2043 53.0032 27.4139 52.1695 26.3176C51.3357 25.2212 50.884 23.8798 50.884 22.5C50.884 21.1202 51.3357 19.7788 52.1695 18.6824C53.0032 17.5861 54.1727 16.7957 55.4976 16.4332C55.9293 16.3154 56.3104 16.0581 56.5819 15.7009C56.8535 15.3438 57.0004 14.9067 57 14.4573V6.13636C57 2.74909 54.2721 0 50.901 0H6.099C2.72786 0 0 2.74909 0 6.13636V14.4409C0.00054132 14.8925 0.149806 15.3312 0.424516 15.6887C0.699225 16.0461 1.08393 16.3021 1.51864 16.4168C2.85763 16.7686 4.04277 17.5565 4.88862 18.6573C5.73446 19.758 6.19328 21.1094 6.19328 22.5C6.19328 23.8906 5.73446 25.242 4.88862 26.3427C4.04277 27.4435 2.85763 28.2314 1.51864 28.5832C1.08393 28.6979 0.699225 28.9539 0.424516 29.3113C0.149806 29.6688 0.00054132 30.1075 0 30.5591L0 38.8636ZM20.2024 34.5355L40.5596 14.0809C41.0139 13.5972 41.2628 12.9547 41.2534 12.2897C41.244 11.6247 40.9771 10.9896 40.5094 10.519C40.0416 10.0485 39.4098 9.77959 38.7479 9.76942C38.0861 9.75925 37.4464 10.0086 36.9645 10.4645L16.6074 30.9191C16.3595 31.1536 16.161 31.4358 16.0236 31.7488C15.8862 32.0618 15.8127 32.3993 15.8075 32.7414C15.8023 33.0834 15.8655 33.4231 15.9933 33.7402C16.1211 34.0573 16.3109 34.3454 16.5515 34.5874C16.7921 34.8294 17.0786 35.0205 17.3941 35.1493C17.7095 35.278 18.0475 35.3419 18.3879 35.337C18.7283 35.3322 19.0644 35.2588 19.376 35.1211C19.6877 34.9834 19.9687 34.7842 20.2024 34.5355ZM16.3712 14.3182C16.3712 13.2332 16.8002 12.1927 17.5637 11.4255C18.3272 10.6583 19.3628 10.2273 20.4426 10.2273C21.5225 10.2273 22.558 10.6583 23.3216 11.4255C24.0851 12.1927 24.5141 13.2332 24.5141 14.3182C24.5141 15.4032 24.0851 16.4437 23.3216 17.2109C22.558 17.9781 21.5225 18.4091 20.4426 18.4091C19.3628 18.4091 18.3272 17.9781 17.5637 17.2109C16.8002 16.4437 16.3712 15.4032 16.3712 14.3182ZM32.6569 30.6818C32.6569 29.5968 33.0859 28.5563 33.8494 27.7891C34.613 27.0219 35.6485 26.5909 36.7284 26.5909C37.8082 26.5909 38.8438 27.0219 39.6073 27.7891C40.3708 28.5563 40.7998 29.5968 40.7998 30.6818C40.7998 31.7668 40.3708 32.8073 39.6073 33.5745C38.8438 34.3417 37.8082 34.7727 36.7284 34.7727C35.6485 34.7727 34.613 34.3417 33.8494 33.5745C33.0859 32.8073 32.6569 31.7668 32.6569 30.6818Z" fill="#F3EFEF"/>
</svg>
