<svg width="81" height="81" viewBox="0 0 81 81" fill="none" xmlns="http://www.w3.org/2000/svg">
<path d="M74.6263 21.8296L49.3138 7.90768C48.94 7.70206 48.5204 7.59424 48.0938 7.59424C47.6672 7.59424 47.2475 7.70206 46.8737 7.90768L21.5612 21.8296C21.1643 22.0481 20.8334 22.3691 20.6029 22.7591C20.3724 23.1491 20.2508 23.5939 20.2508 24.0469C20.2508 24.5 20.3724 24.9447 20.6029 25.3347C20.8334 25.7248 21.1643 26.0458 21.5612 26.2643L45.5625 39.4648V66.5972L37.8776 62.3701L35.4375 66.8023L46.8737 73.0924C47.2475 73.2981 47.6672 73.4059 48.0938 73.4059C48.5204 73.4059 48.94 73.2981 49.3138 73.0924L74.6263 59.1706C75.0233 58.9521 75.3544 58.6312 75.5851 58.2411C75.8157 57.8511 75.9374 57.4063 75.9375 56.9532V24.0469C75.9374 23.5938 75.8157 23.149 75.5851 22.759C75.3544 22.3689 75.0233 22.048 74.6263 21.8296ZM48.0938 13.0157L68.1539 24.0469L48.0938 35.0781L28.0336 24.0469L48.0938 13.0157ZM70.875 55.4572L50.625 66.5947V39.4622L70.875 28.3247V55.4572Z" fill="#F3EFEF"/>
<path d="M25.3125 40.5H5.0625V35.4375H25.3125V40.5ZM30.375 60.75H10.125V55.6875H30.375V60.75ZM35.4375 50.625H15.1875V45.5625H35.4375V50.625Z" fill="#F3EFEF"/>
</svg>
