<svg width="88" height="88" viewBox="0 0 88 88" fill="none" xmlns="http://www.w3.org/2000/svg">
<path d="M14.5816 0C13.7647 0 12.9813 0.324499 12.4037 0.902111C11.8261 1.47972 11.5016 2.26313 11.5016 3.08V81.84H3.08C2.26313 81.84 1.47972 82.1645 0.902112 82.7421C0.3245 83.3197 0 84.1031 0 84.92C0 85.7369 0.3245 86.5203 0.902112 87.0979C1.47972 87.6755 2.26313 88 3.08 88H25.08C25.8969 88 26.6803 87.6755 27.2579 87.0979C27.8355 86.5203 28.16 85.7369 28.16 84.92C28.16 84.1031 27.8355 83.3197 27.2579 82.7421C26.6803 82.1645 25.8969 81.84 25.08 81.84H17.6616V41.36H55.5016C56.3185 41.36 57.1019 41.0355 57.6795 40.4579C58.2571 39.8803 58.5816 39.0969 58.5816 38.28V3.08C58.5816 2.26313 58.2571 1.47972 57.6795 0.902111C57.1019 0.324499 56.3185 0 55.5016 0H15.0216C14.947 0.000564575 14.8725 0.00349939 14.7981 0.0088C14.726 0.00364608 14.6538 0.00071136 14.5816 0ZM26.7256 6.16H35.3496V12.6984H43.9736V6.16H52.4216V12.6984H43.9736V21.3215H52.4216V29.9455H43.9736V35.2H35.3496V29.9464H26.7256V35.2H18.1016V29.9464H26.7256V21.3215H18.1016V12.6975H26.7256V6.16ZM26.7256 12.6984V21.3215H35.3496V12.6975L26.7256 12.6984ZM35.3496 21.3215V29.9464L43.9736 29.9455V21.3215H35.3496Z" fill="#F3EFEF"/>
</svg>
