<svg width="61" height="60" viewBox="0 0 61 60" fill="none" xmlns="http://www.w3.org/2000/svg">
<path d="M10.1667 10H17.7917L22.875 5H38.125L43.2084 10H50.8334C52.1816 10 53.4745 10.5268 54.4278 11.4645C55.3811 12.4021 55.9167 13.6739 55.9167 15V45C55.9167 46.3261 55.3811 47.5979 54.4278 48.5355C53.4745 49.4732 52.1816 50 50.8334 50H10.1667C8.81852 50 7.52556 49.4732 6.57225 48.5355C5.61894 47.5979 5.08337 46.3261 5.08337 45V15C5.08337 13.6739 5.61894 12.4021 6.57225 11.4645C7.52556 10.5268 8.81852 10 10.1667 10ZM30.5 17.5C27.1296 17.5 23.8972 18.817 21.5139 21.1612C19.1306 23.5054 17.7917 26.6848 17.7917 30C17.7917 33.3152 19.1306 36.4946 21.5139 38.8388C23.8972 41.183 27.1296 42.5 30.5 42.5C33.8705 42.5 37.1029 41.183 39.4862 38.8388C41.8695 36.4946 43.2084 33.3152 43.2084 30C43.2084 26.6848 41.8695 23.5054 39.4862 21.1612C37.1029 18.817 33.8705 17.5 30.5 17.5ZM30.5 22.5C32.5223 22.5 34.4618 23.2902 35.8917 24.6967C37.3217 26.1032 38.125 28.0109 38.125 30C38.125 31.9891 37.3217 33.8968 35.8917 35.3033C34.4618 36.7098 32.5223 37.5 30.5 37.5C28.4778 37.5 26.5383 36.7098 25.1084 35.3033C23.6784 33.8968 22.875 31.9891 22.875 30C22.875 28.0109 23.6784 26.1032 25.1084 24.6967C26.5383 23.2902 28.4778 22.5 30.5 22.5Z" fill="#F3EFEF"/>
</svg>
