<svg width="61" height="61" viewBox="0 0 61 61" fill="none" xmlns="http://www.w3.org/2000/svg">
<path d="M46.6289 27.9585C46.6289 25.5067 46.1451 23.0785 45.2068 20.8133C44.2686 18.5484 42.8939 16.4902 41.1604 14.7566C39.4267 13.023 37.3678 11.6474 35.1026 10.7091C32.8376 9.771 30.4101 9.28811 27.9585 9.28809C25.5067 9.28809 23.0785 9.77084 20.8133 10.7091C18.5482 11.6474 16.4903 13.023 14.7566 14.7566C11.2553 18.258 9.28809 23.0069 9.28809 27.9585C9.28814 32.9101 11.2553 37.6591 14.7566 41.1604C18.258 44.6616 23.007 46.6289 27.9585 46.6289C32.9101 46.6289 37.6591 44.6617 41.1604 41.1604C42.8941 39.4267 44.2686 37.3678 45.2068 35.1026C46.145 32.8376 46.6289 30.4102 46.6289 27.9585ZM49.9562 27.9585C49.9562 30.8471 49.3871 33.7076 48.2817 36.3763C47.389 38.5316 46.1591 40.5269 44.6436 42.2911L54.5518 52.1982C55.2015 52.8479 55.2015 53.9021 54.5518 54.5518C53.9021 55.2015 52.8479 55.2015 52.1982 54.5518L42.2911 44.6436C38.316 48.0585 33.2355 49.9562 27.9585 49.9562C22.1245 49.9562 16.5295 47.6381 12.4042 43.5129C8.27887 39.3876 5.96087 33.7925 5.96082 27.9585C5.96082 22.1244 8.27883 16.5295 12.4042 12.4042C14.4468 10.3615 16.8718 8.74076 19.5407 7.63528C22.2094 6.52991 25.0699 5.96082 27.9585 5.96082C30.8472 5.96084 33.7075 6.52984 36.3763 7.63528C39.0452 8.74076 41.4702 10.3615 43.5129 12.4042C45.5554 14.4468 47.1763 16.8719 48.2817 19.5407C49.3871 22.2094 49.9562 25.0699 49.9562 27.9585Z" fill="#F3EFEF"/>
</svg>
