<svg width="65" height="65" viewBox="0 0 65 65" fill="none" xmlns="http://www.w3.org/2000/svg">
<path d="M58.3984 12.1875V22.3438C58.3984 22.7478 58.2379 23.1353 57.9522 23.421C57.6665 23.7067 57.279 23.8672 56.875 23.8672C56.471 23.8672 56.0835 23.7067 55.7978 23.421C55.5121 23.1353 55.3516 22.7478 55.3516 22.3438V13.7109H46.7188C46.3147 13.7109 45.9272 13.5504 45.6415 13.2647C45.3558 12.979 45.1953 12.5915 45.1953 12.1875C45.1953 11.7835 45.3558 11.396 45.6415 11.1103C45.9272 10.8246 46.3147 10.6641 46.7188 10.6641H56.875C57.279 10.6641 57.6665 10.8246 57.9522 11.1103C58.2379 11.396 58.3984 11.7835 58.3984 12.1875ZM18.2813 51.2891H9.64844V42.6563C9.64844 42.2522 9.48793 41.8647 9.20223 41.579C8.91653 41.2933 8.52904 41.1328 8.125 41.1328C7.72096 41.1328 7.33347 41.2933 7.04777 41.579C6.76207 41.8647 6.60156 42.2522 6.60156 42.6563V52.8125C6.60156 53.2165 6.76207 53.604 7.04777 53.8897C7.33347 54.1754 7.72096 54.3359 8.125 54.3359H18.2813C18.6853 54.3359 19.0728 54.1754 19.3585 53.8897C19.6442 53.604 19.8047 53.2165 19.8047 52.8125C19.8047 52.4085 19.6442 52.021 19.3585 51.7353C19.0728 51.4496 18.6853 51.2891 18.2813 51.2891ZM56.875 41.1328C56.471 41.1328 56.0835 41.2933 55.7978 41.579C55.5121 41.8647 55.3516 42.2522 55.3516 42.6563V51.2891H46.7188C46.3147 51.2891 45.9272 51.4496 45.6415 51.7353C45.3558 52.021 45.1953 52.4085 45.1953 52.8125C45.1953 53.2165 45.3558 53.604 45.6415 53.8897C45.9272 54.1754 46.3147 54.3359 46.7188 54.3359H56.875C57.279 54.3359 57.6665 54.1754 57.9522 53.8897C58.2379 53.604 58.3984 53.2165 58.3984 52.8125V42.6563C58.3984 42.2522 58.2379 41.8647 57.9522 41.579C57.6665 41.2933 57.279 41.1328 56.875 41.1328ZM8.125 23.8672C8.52904 23.8672 8.91653 23.7067 9.20223 23.421C9.48793 23.1353 9.64844 22.7478 9.64844 22.3438V13.7109H18.2813C18.6853 13.7109 19.0728 13.5504 19.3585 13.2647C19.6442 12.979 19.8047 12.5915 19.8047 12.1875C19.8047 11.7835 19.6442 11.396 19.3585 11.1103C19.0728 10.8246 18.6853 10.6641 18.2813 10.6641H8.125C7.72096 10.6641 7.33347 10.8246 7.04777 11.1103C6.76207 11.396 6.60156 11.7835 6.60156 12.1875V22.3438C6.60156 22.7478 6.76207 23.1353 7.04777 23.421C7.33347 23.7067 7.72096 23.8672 8.125 23.8672ZM20.3125 20.8203C19.9085 20.8203 19.521 20.9808 19.2353 21.2665C18.9496 21.5522 18.7891 21.9397 18.7891 22.3438V42.6563C18.7891 43.0603 18.9496 43.4478 19.2353 43.7335C19.521 44.0192 19.9085 44.1797 20.3125 44.1797C20.7165 44.1797 21.104 44.0192 21.3897 43.7335C21.6754 43.4478 21.8359 43.0603 21.8359 42.6563V22.3438C21.8359 21.9397 21.6754 21.5522 21.3897 21.2665C21.104 20.9808 20.7165 20.8203 20.3125 20.8203ZM46.2109 42.6563V22.3438C46.2109 21.9397 46.0504 21.5522 45.7647 21.2665C45.479 20.9808 45.0915 20.8203 44.6875 20.8203C44.2835 20.8203 43.896 20.9808 43.6103 21.2665C43.3246 21.5522 43.1641 21.9397 43.1641 22.3438V42.6563C43.1641 43.0603 43.3246 43.4478 43.6103 43.7335C43.896 44.0192 44.2835 44.1797 44.6875 44.1797C45.0915 44.1797 45.479 44.0192 45.7647 43.7335C46.0504 43.4478 46.2109 43.0603 46.2109 42.6563ZM36.5625 20.8203C36.1585 20.8203 35.771 20.9808 35.4853 21.2665C35.1996 21.5522 35.0391 21.9397 35.0391 22.3438V42.6563C35.0391 43.0603 35.1996 43.4478 35.4853 43.7335C35.771 44.0192 36.1585 44.1797 36.5625 44.1797C36.9665 44.1797 37.354 44.0192 37.6397 43.7335C37.9254 43.4478 38.0859 43.0603 38.0859 42.6563V22.3438C38.0859 21.9397 37.9254 21.5522 37.6397 21.2665C37.354 20.9808 36.9665 20.8203 36.5625 20.8203ZM28.4375 20.8203C28.0335 20.8203 27.646 20.9808 27.3603 21.2665C27.0746 21.5522 26.9141 21.9397 26.9141 22.3438V42.6563C26.9141 43.0603 27.0746 43.4478 27.3603 43.7335C27.646 44.0192 28.0335 44.1797 28.4375 44.1797C28.8415 44.1797 29.229 44.0192 29.5147 43.7335C29.8004 43.4478 29.9609 43.0603 29.9609 42.6563V22.3438C29.9609 21.9397 29.8004 21.5522 29.5147 21.2665C29.229 20.9808 28.8415 20.8203 28.4375 20.8203Z" fill="#F3EFEF"/>
</svg>
