<svg width="69" height="69" viewBox="0 0 69 69" fill="none" xmlns="http://www.w3.org/2000/svg">
<path d="M44.4188 47.495L35.765 38.8412C35.4488 38.525 35.075 38.4675 34.8738 38.4675C34.6725 38.4675 34.2988 38.525 33.9825 38.8412L25.3 47.5237C24.3225 48.5012 22.7988 50.0825 17.71 50.0825L28.3763 60.72C29.9935 62.3352 32.1856 63.2424 34.4713 63.2424C36.7569 63.2424 38.9491 62.3352 40.5663 60.72L51.2613 50.0537C48.645 50.0537 46.46 49.5362 44.4188 47.495ZM25.3 21.4762L33.9825 30.1587C34.2125 30.3887 34.5575 30.5325 34.8738 30.5325C35.19 30.5325 35.535 30.3887 35.765 30.1587L44.3613 21.5625C46.4025 19.435 48.7313 18.9462 51.3475 18.9462L40.6525 8.27998C39.0353 6.6648 36.8432 5.75757 34.5575 5.75757C32.2719 5.75757 30.0797 6.6648 28.4625 8.27998L17.7963 18.9175C22.8563 18.9175 24.4088 20.585 25.3 21.4762Z" fill="#F3EFEF"/>
<path d="M60.6912 28.3188L54.2225 21.8213H50.6C49.0475 21.8213 47.495 22.4538 46.4312 23.575L37.8062 32.2C37.0012 33.005 35.9375 33.4075 34.8737 33.4075C33.7783 33.3921 32.7299 32.9604 31.9412 32.2L23.2587 23.4888C22.1662 22.3963 20.6712 21.7638 19.09 21.7638H14.8637L8.27998 28.3763C6.6648 29.9935 5.75757 32.1857 5.75757 34.4713C5.75757 36.7569 6.6648 38.9491 8.27998 40.5663L14.8637 47.1788H19.1187C20.6712 47.1788 22.1662 46.5463 23.2875 45.4538L31.97 36.7713C32.775 35.9663 33.8387 35.5638 34.9025 35.5638C35.9662 35.5638 37.03 35.9663 37.835 36.7713L46.4887 45.425C47.5812 46.5175 49.0762 47.15 50.6575 47.15H54.28L60.7487 40.6525C62.3721 39.007 63.2775 36.7853 63.2667 34.4738C63.2559 32.1623 62.3299 29.9492 60.6912 28.3188Z" fill="#F3EFEF"/>
</svg>
