<svg width="53" height="42" viewBox="0 0 53 42" fill="none" xmlns="http://www.w3.org/2000/svg">
<path fill-rule="evenodd" clip-rule="evenodd" d="M3.1058 3.0765C-2.63254e-07 6.15037 0 11.1011 0 21C0 30.8989 -2.63254e-07 35.8496 3.1058 38.9235C6.2116 41.9974 11.2069 42 21.2 42H31.8C41.7931 42 46.791 42 49.8942 38.9235C52.9973 35.847 53 30.8989 53 21C53 11.1011 53 6.15037 49.8942 3.0765C46.7884 0.00262461 41.7931 0 31.8 0H21.2C11.2069 0 6.20895 -5.27031e-07 3.1058 3.0765ZM28.4875 15.75C28.4875 15.2279 28.2781 14.7271 27.9054 14.3579C27.5326 13.9887 27.0271 13.7812 26.5 13.7812C25.9729 13.7812 25.4674 13.9887 25.0946 14.3579C24.7219 14.7271 24.5125 15.2279 24.5125 15.75V17.5901L22.9039 16.6714C22.4492 16.4315 21.9182 16.3759 21.4229 16.5163C20.9276 16.6568 20.5066 16.9822 20.2489 17.4241C19.9911 17.866 19.9167 18.3898 20.0412 18.885C20.1657 19.3802 20.4795 19.8082 20.9164 20.0786L22.525 20.9974L20.9164 21.9188C20.4596 22.1798 20.1262 22.61 19.9895 23.1146C19.8529 23.6191 19.9241 24.1568 20.1877 24.6094C20.4513 25.0619 20.8855 25.3922 21.3949 25.5276C21.9043 25.6629 22.4471 25.5923 22.9039 25.3312L24.5125 24.4099V26.25C24.5125 26.7721 24.7219 27.2729 25.0946 27.6421C25.4674 28.0113 25.9729 28.2187 26.5 28.2187C27.0271 28.2187 27.5326 28.0113 27.9054 27.6421C28.2781 27.2729 28.4875 26.7721 28.4875 26.25V24.4125L30.0961 25.3312C30.5529 25.5923 31.0957 25.6629 31.6051 25.5276C32.1145 25.3922 32.5487 25.0619 32.8123 24.6094C33.0759 24.1568 33.1471 23.6191 33.0105 23.1146C32.8738 22.61 32.5404 22.1798 32.0836 21.9188L30.475 21L32.0836 20.0812C32.5404 19.8202 32.8738 19.39 33.0105 18.8854C33.1471 18.3809 33.0759 17.8431 32.8123 17.3906C32.5487 16.9381 32.1145 16.6078 31.6051 16.4724C31.0957 16.3371 30.5529 16.4077 30.0961 16.6688L28.4875 17.5875V15.75ZM12.5424 13.7812C13.0696 13.7812 13.5751 13.9887 13.9478 14.3579C14.3206 14.7271 14.5299 15.2279 14.5299 15.75V17.5875L16.1358 16.6688C16.5927 16.4077 17.1355 16.3371 17.6449 16.4724C18.1543 16.6078 18.5885 16.9381 18.8521 17.3906C19.1157 17.8431 19.1869 18.3809 19.0503 18.8854C18.9136 19.39 18.5802 19.8202 18.1234 20.0812L16.5148 21L18.1234 21.9188C18.3496 22.048 18.5478 22.2202 18.7069 22.4253C18.8659 22.6305 18.9826 22.8647 19.0503 23.1146C19.118 23.3644 19.1353 23.625 19.1013 23.8815C19.0673 24.138 18.9826 24.3853 18.8521 24.6094C18.7216 24.8334 18.5478 25.0299 18.3407 25.1874C18.1336 25.3449 17.8971 25.4605 17.6449 25.5276C17.3927 25.5946 17.1296 25.6118 16.8707 25.5781C16.6117 25.5444 16.3621 25.4605 16.1358 25.3312L14.5299 24.4125V26.25C14.5299 26.7721 14.3206 27.2729 13.9478 27.6421C13.5751 28.0113 13.0696 28.2187 12.5424 28.2187C12.0153 28.2187 11.5098 28.0113 11.1371 27.6421C10.7643 27.2729 10.5549 26.7721 10.5549 26.25V24.4099L8.94375 25.3286C8.489 25.5685 7.95799 25.6241 7.46267 25.4837C6.96736 25.3432 6.54644 25.0178 6.28869 24.5759C6.03093 24.134 5.95647 23.6102 6.08101 23.115C6.20555 22.6198 6.51935 22.1918 6.95625 21.9214L8.5648 21L6.95625 20.0812C6.73005 19.952 6.53177 19.7798 6.37272 19.5747C6.21368 19.3695 6.09699 19.1353 6.02932 18.8854C5.96165 18.6356 5.94432 18.375 5.97833 18.1185C6.01233 17.862 6.097 17.6147 6.2275 17.3906C6.358 17.1666 6.53178 16.9701 6.73891 16.8126C6.94604 16.6551 7.18247 16.5395 7.4347 16.4724C7.68692 16.4054 7.95001 16.3882 8.20893 16.4219C8.46786 16.4556 8.71755 16.5395 8.94375 16.6688L10.5549 17.5901V15.75C10.5549 15.2279 10.7643 14.7271 11.1371 14.3579C11.5098 13.9887 12.0153 13.7812 12.5424 13.7812ZM42.4477 15.75C42.4477 15.2279 42.2383 14.7271 41.8656 14.3579C41.4928 13.9887 40.9873 13.7812 40.4602 13.7812C39.9331 13.7812 39.4276 13.9887 39.0548 14.3579C38.6821 14.7271 38.4727 15.2279 38.4727 15.75V17.5901L36.8642 16.6714C36.4094 16.4315 35.8784 16.3759 35.3831 16.5163C34.8878 16.6568 34.4668 16.9822 34.2091 17.4241C33.9513 17.866 33.8769 18.3898 34.0014 18.885C34.1259 19.3802 34.4397 19.8082 34.8766 20.0786L36.4852 20.9974L34.874 21.9188C34.4172 22.1798 34.0837 22.61 33.9471 23.1146C33.8104 23.6191 33.8817 24.1568 34.1453 24.6094C34.4088 25.0619 34.8431 25.3922 35.3524 25.5276C35.8618 25.6629 36.4047 25.5923 36.8615 25.3312L38.4727 24.4099V26.25C38.4727 26.7721 38.6821 27.2729 39.0548 27.6421C39.4276 28.0113 39.9331 28.2187 40.4602 28.2187C40.9873 28.2187 41.4928 28.0113 41.8656 27.6421C42.2383 27.2729 42.4477 26.7721 42.4477 26.25V24.4125L44.0563 25.3312C44.5131 25.5923 45.0559 25.6629 45.5653 25.5276C46.0747 25.3922 46.5089 25.0619 46.7725 24.6094C47.0361 24.1568 47.1073 23.6191 46.9707 23.1146C46.834 22.61 46.5006 22.1798 46.0437 21.9188L44.4352 21L46.0437 20.0812C46.5006 19.8202 46.834 19.39 46.9707 18.8854C47.1073 18.3809 47.0361 17.8431 46.7725 17.3906C46.5089 16.9381 46.0747 16.6078 45.5653 16.4724C45.0559 16.3371 44.5131 16.4077 44.0563 16.6688L42.4477 17.5875V15.75Z" fill="#F3EFEF"/>
</svg>
