<svg width="4254" height="712" viewBox="0 0 4254 712" fill="none" xmlns="http://www.w3.org/2000/svg">
<path d="M4058 441.679L4161.95 171.356H4253.93L4028.57 712H3930.15L4010.17 525.982L3851.96 171.356H3952.22L4058 441.679ZM47.7754 299.717C74.1609 299.717 95.5508 321.107 95.5508 347.492V400.395C95.5509 434.623 109.148 467.451 133.352 491.654C157.555 515.858 190.383 529.455 224.612 529.455C258.841 529.455 291.669 515.858 315.872 491.654C340.076 467.451 353.673 434.622 353.673 400.394L353.672 347.493C353.672 321.107 375.062 299.718 401.448 299.718C427.834 299.718 449.224 321.108 449.224 347.493V400.395C449.223 459.965 425.559 517.095 383.437 559.218C341.314 601.34 284.182 625.005 224.611 625.005C165.041 625.005 107.91 601.34 65.7871 559.218C23.6646 517.095 4.99354e-07 459.964 0 400.394V347.492C3.11303e-07 321.107 21.3898 299.717 47.7754 299.717ZM3403.06 165.858C3455.8 165.858 3496.58 182.047 3525.4 214.425C3554.22 246.802 3568.63 291.703 3568.63 349.127V383.032H3328.55C3333.46 436.18 3373.01 462.754 3447.21 462.754C3493.82 462.754 3529.08 459.7 3553 453.591V518.651C3519.88 527.815 3480.63 532.396 3435.26 532.396C3375.16 532.396 3327.33 515.902 3291.76 482.914C3256.81 449.315 3239.33 404.719 3239.33 349.127C3239.33 312.473 3246.99 280.096 3262.32 251.995C3277.65 224.505 3297.59 203.428 3322.11 188.767C3346.64 173.494 3373.63 165.858 3403.06 165.858ZM930.867 165.858C956.01 165.858 986.365 170.135 1021.93 178.688V252.911C983.299 242.526 953.25 237.333 931.787 237.333C907.258 237.333 889.168 239.777 877.517 244.664C868.318 248.94 863.719 255.966 863.719 265.74C863.719 275.514 869.545 283.457 881.196 289.565C887.942 293.842 905.726 300.561 934.547 309.725L952.943 315.223C979.925 323.164 1000.78 330.8 1015.49 338.131C1030.21 344.851 1042.17 354.931 1051.37 368.371C1060.57 381.811 1065.17 400.138 1065.17 423.352C1065.16 456.951 1051.37 483.525 1023.77 503.073C996.789 522.011 957.542 531.48 906.031 531.48C871.69 531.48 834.284 524.455 793.811 510.404V430.682C843.482 447.787 882.422 456.34 910.631 456.34C936.999 456.34 955.09 453.591 964.901 448.093C975.326 442.595 980.539 434.042 980.539 422.435C980.539 413.882 975.633 407.468 965.821 403.191C957.236 398.915 940.985 392.807 917.069 384.865C890.087 376.924 867.398 368.677 849.001 360.124C803.622 339.964 780.933 307.281 780.933 262.074C780.933 231.53 793.197 208.01 817.727 191.516C842.256 174.411 879.969 165.858 930.867 165.858ZM1984.56 165.858C2009.7 165.858 2040.06 170.135 2075.62 178.688V252.911C2036.99 242.526 2006.94 237.333 1985.48 237.333C1960.95 237.333 1942.86 239.777 1931.21 244.664C1922.01 248.94 1917.41 255.966 1917.41 265.74C1917.41 275.514 1923.24 283.457 1934.89 289.565C1941.63 293.842 1959.42 300.561 1988.24 309.725L2006.63 315.223C2033.62 323.164 2054.47 330.8 2069.18 338.131C2083.9 344.851 2095.86 354.931 2105.06 368.371C2114.26 381.811 2118.86 400.138 2118.86 423.352C2118.86 456.951 2105.06 483.525 2077.46 503.073C2050.48 522.011 2011.23 531.48 1959.72 531.48C1925.38 531.48 1887.97 524.455 1847.5 510.404V430.682C1897.17 447.787 1936.11 456.34 1964.32 456.34C1990.69 456.34 2008.78 453.591 2018.59 448.093C2029.02 442.595 2034.23 434.041 2034.23 422.435C2034.23 413.882 2029.32 407.468 2019.51 403.191C2010.93 398.915 1994.68 392.807 1970.76 384.865C1943.78 376.924 1921.09 368.677 1902.69 360.124C1857.31 339.964 1834.62 307.281 1834.62 262.074C1834.62 231.53 1846.89 208.01 1871.42 191.516C1895.95 174.411 1933.66 165.858 1984.56 165.858ZM1189.01 374.785C1189.01 397.999 1194.22 416.021 1204.64 428.85C1215.68 441.068 1231.93 447.177 1253.4 447.177C1279.76 447.177 1305.52 440.151 1330.66 426.101V171.356H1417.13V524.149H1347.22L1345.38 489.328C1317.78 502.157 1296.32 511.015 1280.99 515.902C1265.66 520.179 1248.8 522.316 1230.4 522.316C1183.79 522.316 1150.68 509.488 1131.06 483.83C1111.43 458.172 1101.62 417.853 1101.62 362.873V171.356H1189.01V374.785ZM1542.05 171.356C1561.68 161.582 1589.58 156.695 1625.76 156.695C1650.9 156.695 1678.19 162.804 1707.63 175.021C1735.84 187.85 1757.91 208.621 1773.86 237.333C1789.8 265.434 1797.77 299.34 1797.77 339.048C1797.77 395.861 1781.83 440.762 1749.94 473.75C1718.66 506.127 1674.51 522.316 1617.48 522.316C1586.21 522.316 1554.93 513.153 1523.66 494.826L1522.74 523.233H1453.75V19.2432H1542.05V171.356ZM2338.36 165.858C2378.83 165.858 2412.87 171.662 2440.46 183.269V252.911C2417.77 245.58 2400.91 240.694 2389.87 238.25C2379.45 235.806 2367.18 234.584 2353.08 234.584C2318.12 234.584 2291.45 243.442 2273.05 261.158C2255.27 278.874 2246.38 305.143 2246.38 339.964C2246.38 373.563 2255.88 401.053 2274.89 422.435C2294.51 443.205 2320.58 453.591 2353.08 453.591C2367.18 453.591 2379.45 452.369 2389.87 449.926C2400.91 447.482 2417.77 442.594 2440.46 435.264V504.906C2409.19 517.124 2375.15 523.233 2338.36 523.233C2283.17 523.233 2238.71 506.433 2204.98 472.834C2171.87 439.235 2155.31 394.945 2155.31 339.964C2155.31 284.983 2171.56 242.221 2204.06 211.676C2236.56 181.131 2281.33 165.858 2338.36 165.858ZM2654.43 171.356C2665.47 171.356 2678.65 172.884 2693.98 175.938V262.074C2673.74 251.078 2649.83 245.58 2622.23 245.58C2603.84 245.58 2584.52 248.94 2564.28 255.66V523.233H2476.9V262.074C2476.29 230.308 2493.15 207.399 2527.49 193.349C2561.83 178.687 2601.38 171.356 2646.15 171.356H2654.43ZM2833.17 523.233H2744.87V171.356H2833.17V523.233ZM3050.36 430.682L3133.14 171.356H3225.13L3093.59 523.233H3004.37L2868.23 171.356H2966.65L3050.36 430.682ZM3782.68 171.356C3793.71 171.356 3806.9 172.884 3822.23 175.938V262.074C3801.99 251.078 3778.08 245.58 3750.48 245.58C3732.09 245.58 3712.77 248.94 3692.53 255.66V523.233H3605.15V262.074C3604.53 230.308 3621.4 207.399 3655.74 193.349C3690.08 178.687 3729.63 171.356 3774.4 171.356H3782.68ZM1605.52 225.421C1579.16 225.421 1558 229.391 1542.05 237.333V436.181C1559.23 447.788 1579.46 453.591 1602.76 453.591C1636.49 453.591 1662.25 444.427 1680.03 426.101C1698.43 407.163 1707.63 379.672 1707.63 343.629C1707.63 264.824 1673.59 225.421 1605.52 225.421ZM393.942 68C453.513 68.0001 510.644 91.6646 552.767 133.787C594.889 175.91 618.554 233.041 618.554 292.611V345.514C618.553 371.899 597.164 393.288 570.778 393.288C544.393 393.288 523.003 371.898 523.003 345.513V292.612C523.003 258.383 509.406 225.556 485.202 201.353C460.999 177.149 428.171 163.551 393.942 163.551C359.713 163.551 326.885 177.148 302.682 201.352C278.478 225.555 264.882 258.383 264.882 292.612L264.881 345.514C264.881 371.899 243.491 393.288 217.105 393.288C190.72 393.288 169.331 371.899 169.331 345.514L169.33 292.612C169.33 233.042 192.995 175.911 235.117 133.788C277.24 91.6654 334.372 68.0001 393.942 68ZM3404.9 234.584C3384.66 234.584 3367.49 242.831 3353.39 259.325C3339.29 275.208 3331.62 295.979 3330.39 321.637H3481.25C3481.25 294.147 3474.5 272.766 3461.01 257.493C3447.52 242.221 3428.82 234.584 3404.9 234.584ZM2523.81 175.021C2512.16 178.687 2501.73 183.88 2492.54 190.6C2483.95 197.319 2478.43 204.04 2475.98 210.76L2475.06 175.021H2523.81ZM3652.06 175.021C3640.41 178.687 3629.98 183.88 3620.78 190.6C3612.2 197.319 3606.68 204.04 3604.23 210.76L3603.31 175.021H3652.06ZM2789.02 0C2804.96 0 2818.15 5.498 2828.57 16.4941C2839.61 26.8794 2845.13 40.0142 2845.13 55.8975C2845.13 71.1697 2839.61 84.3038 2828.57 95.2998C2818.15 106.296 2804.96 111.794 2789.02 111.794C2773.69 111.794 2760.5 106.296 2749.47 95.2998C2738.43 84.3038 2732.91 71.1696 2732.91 55.8975C2732.91 40.0142 2738.43 26.8794 2749.47 16.4941C2760.5 5.49804 2773.69 4.52344e-05 2789.02 0Z" fill="#E9E1FF"/>
</svg>
