<svg width="76" height="76" viewBox="0 0 76 76" fill="none" xmlns="http://www.w3.org/2000/svg">
<mask id="mask0_2560_186" style="mask-type:luminance" maskUnits="userSpaceOnUse" x="6" y="12" width="64" height="52">
<path d="M44.3333 12.6666H31.6666C19.7251 12.6666 13.7528 12.6666 10.0446 16.378C7.37198 19.0475 6.62464 22.8918 6.41564 29.2916H69.5843C69.3753 22.8918 68.628 19.0475 65.9553 16.378C62.2471 12.6666 56.2748 12.6666 44.3333 12.6666ZM31.6666 63.3333H44.3333C56.2748 63.3333 62.2471 63.3333 65.9553 59.622C69.6635 55.9106 69.6666 49.9415 69.6666 38C69.6666 36.6024 69.6645 35.283 69.6603 34.0416H6.33964C6.33331 35.283 6.3312 36.6024 6.33331 38C6.33331 49.9415 6.33331 55.9138 10.0446 59.622C13.756 63.3301 19.7251 63.3333 31.6666 63.3333Z" fill="white"/>
<path fill-rule="evenodd" clip-rule="evenodd" d="M16.625 50.6666C16.625 50.0367 16.8752 49.4326 17.3206 48.9872C17.766 48.5418 18.3701 48.2916 19 48.2916H31.6667C32.2966 48.2916 32.9006 48.5418 33.346 48.9872C33.7914 49.4326 34.0417 50.0367 34.0417 50.6666C34.0417 51.2965 33.7914 51.9006 33.346 52.346C32.9006 52.7914 32.2966 53.0416 31.6667 53.0416H19C18.3701 53.0416 17.766 52.7914 17.3206 52.346C16.8752 51.9006 16.625 51.2965 16.625 50.6666ZM37.2083 50.6666C37.2083 50.0367 37.4586 49.4326 37.904 48.9872C38.3494 48.5418 38.9534 48.2916 39.5833 48.2916H44.3333C44.9632 48.2916 45.5673 48.5418 46.0127 48.9872C46.4581 49.4326 46.7083 50.0367 46.7083 50.6666C46.7083 51.2965 46.4581 51.9006 46.0127 52.346C45.5673 52.7914 44.9632 53.0416 44.3333 53.0416H39.5833C38.9534 53.0416 38.3494 52.7914 37.904 52.346C37.4586 51.9006 37.2083 51.2965 37.2083 50.6666Z" fill="black"/>
</mask>
<g mask="url(#mask0_2560_186)">
<path d="M0 0H76V76H0V0Z" fill="#F3EFEF"/>
</g>
</svg>
