<svg width="59" height="54" viewBox="0 0 59 54" fill="none" xmlns="http://www.w3.org/2000/svg">
<mask id="mask0_2560_156" style="mask-type:luminance" maskUnits="userSpaceOnUse" x="0" y="0" width="59" height="54">
<path d="M1.1084 52.723V4.23598C1.1084 2.51548 2.51609 1.10779 4.23659 1.10779H54.2877C56.0082 1.10779 57.4159 2.51548 57.4159 4.23598V41.7743C57.4159 43.4948 56.0082 44.9025 54.2877 44.9025H8.92889L1.1084 52.723Z" fill="white"/>
<path d="M56.3072 4.23657C56.3072 3.1975 55.5064 2.33181 54.493 2.22761L54.2874 2.21678H4.23657C3.12822 2.21679 2.21679 3.12822 2.21678 4.23657V50.0476L8.14516 44.1192L8.22634 44.0456C8.42356 43.884 8.67164 43.7945 8.92883 43.7945H54.2874C55.3957 43.7945 56.3072 42.883 56.3072 41.7747V4.23657ZM58.5239 41.7747C58.5239 44.1073 56.62 46.0112 54.2874 46.0112H9.38777L1.89206 53.507C1.57506 53.824 1.09826 53.9188 0.684085 53.7473C0.270054 53.5756 0 53.1715 0 52.7233V4.23657C1.07847e-05 1.90393 1.90393 1.07845e-05 4.23657 0H54.2874L54.5049 0.00541207C56.7374 0.119211 58.5239 1.97676 58.5239 4.23657V41.7747Z" fill="white"/>
<path d="M41.7748 12.5123L41.8885 12.5177C42.4473 12.5746 42.8832 13.0469 42.8832 13.6207C42.8832 14.1946 42.4473 14.6669 41.8885 14.7237L41.7748 14.7291H16.7494C16.1373 14.7291 15.6411 14.2329 15.6411 13.6207C15.6411 13.0086 16.1373 12.5123 16.7494 12.5123H41.7748Z" fill="black"/>
<path d="M41.7748 21.8969L41.8885 21.9023C42.4473 21.9591 42.8832 22.4314 42.8832 23.0052C42.8832 23.5791 42.4473 24.0514 41.8885 24.1082L41.7748 24.1136H16.7494C16.1373 24.1136 15.6411 23.6174 15.6411 23.0052C15.6411 22.3931 16.1373 21.8969 16.7494 21.8969H41.7748Z" fill="black"/>
<path d="M29.2621 31.2814L29.3758 31.2868C29.9346 31.3436 30.3705 31.8159 30.3705 32.3898C30.3705 32.9636 29.9346 33.4359 29.3758 33.4927L29.2621 33.4982H16.7494C16.1373 33.4982 15.6411 33.0019 15.6411 32.3898C15.6411 31.7776 16.1373 31.2814 16.7494 31.2814H29.2621Z" fill="black"/>
</mask>
<g mask="url(#mask0_2560_156)">
<path d="M66.8006 -8.27722H-8.27612V66.7995H66.8006V-8.27722Z" fill="#F3EFEF"/>
</g>
</svg>
