<svg width="54" height="55" viewBox="0 0 54 55" fill="none" xmlns="http://www.w3.org/2000/svg">
<path fill-rule="evenodd" clip-rule="evenodd" d="M53.5631 25.0965L52.9448 31.7955C51.9242 42.8285 51.4139 48.3478 48.2199 51.6725C45.0313 55 40.247 55 30.6731 55H23.3293C13.758 55 8.97373 55 5.77971 51.6725C2.58569 48.345 2.0781 42.8285 1.05753 31.7955L0.436545 25.0965C-0.049442 19.8385 -0.292436 17.2067 0.593142 16.1205C0.816585 15.8382 1.09264 15.6037 1.40541 15.4305C1.71818 15.2573 2.06149 15.1488 2.41559 15.1112C3.70076 14.9957 5.31262 16.8658 8.53904 20.6058C10.2076 22.5417 11.0419 23.507 11.9706 23.6582C12.4894 23.7412 13.0206 23.6545 13.488 23.4107C14.3493 22.9707 14.919 21.7745 16.0664 19.3847L22.1062 6.77875C24.2715 2.2605 25.3542 0 27.0012 0C28.6481 0 29.7308 2.2605 31.8961 6.77875L37.9359 19.3847C39.0806 21.7772 39.653 22.9707 40.5143 23.4107C40.9895 23.6555 41.5133 23.7407 42.0317 23.6582C42.9605 23.507 43.7947 22.5417 45.4633 20.6058C48.6897 16.8658 50.3016 14.9957 51.5867 15.1112C51.9408 15.1488 52.2841 15.2573 52.5969 15.4305C52.9097 15.6037 53.1857 15.8382 53.4092 16.1205C54.2921 17.2067 54.0491 19.8385 53.5631 25.0965ZM29.5715 29.425L29.3069 28.941C28.2809 27.0655 27.7679 26.1277 27.0012 26.1277C26.2344 26.1277 25.7214 27.0655 24.6954 28.941L24.4308 29.425C24.1392 29.9585 23.9934 30.2225 23.7666 30.3985C23.5372 30.5745 23.2537 30.6405 22.6867 30.7725L22.1737 30.8907C20.1811 31.35 19.1849 31.5782 18.9473 32.3565C18.7097 33.132 19.3901 33.9405 20.7481 35.5575L21.0991 35.9755C21.4852 36.4375 21.6796 36.6657 21.766 36.949C21.8524 37.235 21.8227 37.5402 21.766 38.1535L21.712 38.7145C21.5068 40.8705 21.4042 41.9513 22.0225 42.4298C22.6435 42.911 23.5777 42.4737 25.4433 41.5965L25.9239 41.371C26.4558 41.1235 26.7204 40.9997 27.0012 40.9997C27.282 40.9997 27.5465 41.1235 28.0784 41.371L28.559 41.5965C30.4247 42.4737 31.3589 42.911 31.9798 42.4298C32.6008 41.9513 32.4955 40.8705 32.2903 38.7117L32.2363 38.1535C32.1796 37.5402 32.1499 37.235 32.2363 36.9517C32.3227 36.6657 32.5171 36.4375 32.9032 35.9755L33.2542 35.5575C34.6123 33.9405 35.2926 33.132 35.0551 32.3537C34.8175 31.5782 33.8212 31.35 31.8286 30.8907L31.3156 30.7725C30.7487 30.6405 30.4652 30.5745 30.2357 30.3985C30.0089 30.2252 29.8631 29.9585 29.5715 29.425Z" fill="#F3EFEF"/>
</svg>
