<svg width="83" height="66" viewBox="0 0 83 66" fill="none" xmlns="http://www.w3.org/2000/svg">
<path d="M21.2509 15.0127C21.2509 13.4866 22.5027 12.2495 24.0469 12.2495C25.5911 12.2495 26.843 13.4866 26.843 15.0127V48.2051L52.3799 59.2469L77.9179 48.2051V15.0127C77.9179 13.4866 79.1697 12.2495 80.7139 12.2495C82.258 12.2497 83.51 13.4867 83.51 15.0127V50.013C83.5098 51.1106 82.852 52.1041 81.8345 52.5441L53.5005 64.7938C52.7861 65.1026 51.9736 65.1026 51.2593 64.7938L22.9263 52.5441C21.9087 52.1042 21.251 51.1107 21.2509 50.013V15.0127Z" fill="#F3EFEF"/>
<path d="M79.5934 12.4816C81.0081 11.8701 82.6564 12.5072 83.2753 13.9052C83.8941 15.3032 83.2491 16.932 81.8347 17.5437L53.5006 29.7945C52.7863 30.1031 51.9737 30.1033 51.2594 29.7945L22.9264 17.5437C21.5117 16.9321 20.8668 15.3033 21.4858 13.9052C22.1048 12.5072 23.7529 11.8699 25.1676 12.4816L52.38 24.2466L79.5934 12.4816Z" fill="#F3EFEF"/>
<path d="M63.7505 32.5127V23.0468L37.0843 11.4156C35.6717 10.7993 35.0322 9.1677 35.6557 7.77169C36.2793 6.37577 37.9303 5.74372 39.343 6.35989L67.6759 18.7185C68.6892 19.1605 69.3426 20.1519 69.3426 21.2464V32.5127C69.3426 34.0388 68.0908 35.2759 66.5466 35.2759C65.0025 35.2757 63.7505 34.0387 63.7505 32.5127Z" fill="#F3EFEF"/>
<path d="M49.5839 62.2624V27.2631C49.5839 25.7371 50.8359 24.5001 52.3799 24.4999C53.9241 24.4999 55.176 25.737 55.176 27.2631V62.2624C55.176 63.7884 53.9241 65.0255 52.3799 65.0255C50.8359 65.0253 49.5839 63.7883 49.5839 62.2624ZM0.264129 35.3734C0.918755 33.9913 2.58343 33.3956 3.982 34.0425L4.14911 34.1192H4.14802L18.1359 40.5046C19.5377 41.1445 20.1496 42.7859 19.5023 44.1712C18.8547 45.5566 17.1928 46.1614 15.791 45.5215L1.79104 39.1306L1.77793 39.1241L1.61191 39.0475C0.213394 38.4006 -0.390351 36.7555 0.264129 35.3734ZM2.75873 24.2765C3.40643 22.8912 5.06828 22.2873 6.47006 22.9273L18.1359 28.2539C19.5377 28.894 20.1498 30.5363 19.5023 31.9216C18.8546 33.3069 17.1928 33.9109 15.791 33.2708L4.12508 27.9441C2.72327 27.3041 2.11102 25.6618 2.75873 24.2765ZM5.09278 13.0943C5.74033 11.709 7.40225 11.1053 8.8041 11.7451L18.1359 16.0043C19.5377 16.6441 20.1494 18.2855 19.5023 19.6709C18.8548 21.0563 17.1929 21.661 15.791 21.0211L6.45913 16.762C5.05722 16.1221 4.44529 14.4798 5.09278 13.0943ZM51.2593 0.231617C51.9737 -0.0772413 52.7861 -0.0771703 53.5005 0.231617L81.8346 12.4813C83.2491 13.0929 83.8939 14.7218 83.2752 16.1198C82.6563 17.5177 81.008 18.1558 79.5934 17.5445L52.3799 5.77736L25.1676 17.5445C23.7529 18.156 22.1047 17.5178 21.4857 16.1198C20.867 14.7217 21.5117 13.0929 22.9264 12.4813L51.2593 0.231617Z" fill="#F3EFEF"/>
</svg>
