<svg width="55" height="55" viewBox="0 0 55 55" fill="none" xmlns="http://www.w3.org/2000/svg">
<path d="M15.0803 40.483L37.1388 8.97146C37.2649 8.77905 37.4284 8.61392 37.6195 8.48587C37.8107 8.35782 38.0256 8.26945 38.2515 8.226C38.4775 8.18255 38.7098 8.1849 38.9348 8.23291C39.1598 8.28093 39.3729 8.37363 39.5614 8.50552C39.7499 8.63741 39.9101 8.80581 40.0323 9.00073C40.1545 9.19566 40.2364 9.41313 40.273 9.64027C40.3096 9.86741 40.3002 10.0996 40.2455 10.3231C40.1907 10.5465 40.0916 10.7567 39.9541 10.9411L16.8781 43.9068C16.7462 44.0959 16.5775 44.2566 16.3821 44.3792C16.1867 44.5018 15.9687 44.5839 15.741 44.6204C15.5132 44.657 15.2804 44.6474 15.0565 44.5921C14.8326 44.5368 14.6221 44.437 14.4375 44.2986L2.06251 35.0174C1.88194 34.882 1.72981 34.7123 1.61482 34.5181C1.49982 34.3239 1.4242 34.1089 1.39228 33.8855C1.32782 33.4342 1.44525 32.9758 1.71876 32.6111C1.99226 32.2465 2.39943 32.0054 2.85069 31.9409C3.30195 31.8765 3.76033 31.9939 4.12501 32.2674L15.0803 40.483ZM39.5313 24.0621C39.0754 24.0621 38.6382 23.881 38.3159 23.5587C37.9936 23.2363 37.8125 22.7992 37.8125 22.3433C37.8125 21.8875 37.9936 21.4503 38.3159 21.128C38.6382 20.8057 39.0754 20.6246 39.5313 20.6246H49.8438C50.2996 20.6246 50.7368 20.8057 51.0591 21.128C51.3814 21.4503 51.5625 21.8875 51.5625 22.3433C51.5625 22.7992 51.3814 23.2363 51.0591 23.5587C50.7368 23.881 50.2996 24.0621 49.8438 24.0621H39.5313ZM32.6563 34.3746C32.2004 34.3746 31.7632 34.1935 31.4409 33.8712C31.1186 33.5488 30.9375 33.1117 30.9375 32.6558C30.9375 32.2 31.1186 31.7628 31.4409 31.4405C31.7632 31.1182 32.2004 30.9371 32.6563 30.9371H49.8403C50.2962 30.9371 50.7333 31.1182 51.0557 31.4405C51.378 31.7628 51.5591 32.2 51.5591 32.6558C51.5591 33.1117 51.378 33.5488 51.0557 33.8712C50.7333 34.1935 50.2962 34.3746 49.8403 34.3746H32.6563ZM25.7813 44.6871C25.3254 44.6871 24.8882 44.506 24.5659 44.1837C24.2436 43.8613 24.0625 43.4242 24.0625 42.9683C24.0625 42.5125 24.2436 42.0753 24.5659 41.753C24.8882 41.4307 25.3254 41.2496 25.7813 41.2496H49.8403C50.2962 41.2496 50.7333 41.4307 51.0557 41.753C51.378 42.0753 51.5591 42.5125 51.5591 42.9683C51.5591 43.4242 51.378 43.8613 51.0557 44.1837C50.7333 44.506 50.2962 44.6871 49.8403 44.6871H25.7813Z" fill="#F3EFEF"/>
<path d="M22.9404 42.9687C22.9404 42.2282 23.2345 41.5137 23.7647 40.9835C24.2957 40.4525 25.0207 40.1499 25.7816 40.1499V41.2499L25.6117 41.2585C25.2183 41.2975 24.8481 41.4707 24.566 41.7526L24.452 41.8794C24.2014 42.1852 24.0629 42.5698 24.0629 42.9687L24.0705 43.1384C24.1096 43.5318 24.284 43.9016 24.566 44.1836C24.8481 44.4657 25.2181 44.6398 25.6117 44.6788L25.7816 44.6874H49.8397L50.0096 44.6788C50.4033 44.6398 50.7732 44.4657 51.0554 44.1836C51.3374 43.9016 51.5117 43.5318 51.5508 43.1384L51.5585 42.9687C51.5585 42.5128 51.3777 42.075 51.0554 41.7526C50.7733 41.4707 50.4031 41.2975 50.0096 41.2585L49.8397 41.2499V40.1499C50.6007 40.1499 51.3267 40.4525 51.8577 40.9835C52.3877 41.5137 52.6809 42.2284 52.6809 42.9687C52.6809 43.709 52.3878 44.4236 51.8577 44.9538C51.3267 45.4848 50.6007 45.7874 49.8397 45.7874H25.7816C25.0209 45.7874 24.2957 45.4846 23.7647 44.9538C23.2345 44.4236 22.9405 43.709 22.9404 42.9687ZM38.0354 7.14668C38.4116 7.07433 38.7986 7.0786 39.1732 7.1585C39.5479 7.23845 39.9017 7.39266 40.2134 7.61074C40.525 7.82877 40.7883 8.10583 40.9884 8.425C41.1885 8.74415 41.3223 9.09948 41.3819 9.46914C41.4414 9.83856 41.4261 10.2162 41.337 10.5799C41.2504 10.9331 41.093 11.2657 40.8777 11.5617L40.8799 11.5639L17.8039 44.5295L17.8028 44.5284C17.5866 44.838 17.3101 45.1035 16.9873 45.3062C16.664 45.509 16.3011 45.6449 15.9218 45.7058C15.5425 45.7666 15.1545 45.7505 14.7818 45.6585C14.4092 45.5664 14.0607 45.4004 13.7559 45.1719H13.7548L1.38042 35.8906C1.08218 35.6669 0.832011 35.3878 0.643809 35.0699C0.455702 34.7522 0.332915 34.4011 0.280986 34.0376C0.176344 33.3044 0.366626 32.5576 0.814807 31.9601C1.26364 31.3616 1.93655 30.9601 2.68921 30.8525C3.44206 30.7451 4.20402 30.9418 4.80696 31.3939L14.8235 38.9049L36.2136 8.34873C36.4177 8.04555 36.6798 7.78284 36.9864 7.57744C37.3025 7.36576 37.6592 7.21902 38.0354 7.14668ZM38.9342 8.23271C38.7094 8.18482 38.4771 8.18285 38.2513 8.22627L38.0847 8.26709C37.9199 8.31626 37.7634 8.39018 37.62 8.48623L37.4818 8.58828C37.3491 8.69785 37.2335 8.8273 37.1387 8.97178L15.08 40.4829L4.12515 32.2673C3.76048 31.9938 3.3016 31.8763 2.85034 31.9407C2.3993 32.0052 1.99258 32.2466 1.71912 32.611L1.62376 32.7518C1.41883 33.0899 1.33616 33.4902 1.39247 33.8851C1.42438 34.1084 1.50005 34.3236 1.61499 34.5178C1.72994 34.7119 1.88175 34.8819 2.06222 35.0173L14.4377 44.2985C14.6222 44.4369 14.8331 44.5365 15.057 44.5918C15.2246 44.6331 15.3971 44.6491 15.5689 44.6391L15.741 44.6208C15.9115 44.5934 16.0767 44.5403 16.2309 44.464L16.3822 44.3791C16.5775 44.2565 16.7457 44.0956 16.8777 43.9064L39.9536 10.9408C40.0568 10.8024 40.1385 10.6496 40.1959 10.4875L40.2452 10.3231C40.3 10.0997 40.3092 9.86708 40.2726 9.63994C40.2451 9.46973 40.1921 9.30509 40.1159 9.15117L40.0326 9.00078C39.9103 8.80586 39.7497 8.63746 39.5612 8.50557C39.3727 8.37371 39.1592 8.28072 38.9342 8.23271ZM49.8397 40.1499V41.2499H25.7816V40.1499H49.8397ZM29.8154 32.6562C29.8154 31.9157 30.1095 31.2012 30.6397 30.671C31.1707 30.14 31.8957 29.8374 32.6566 29.8374V30.9374L32.4867 30.946C32.0933 30.985 31.7231 31.1582 31.441 31.4401L31.327 31.5669C31.0764 31.8727 30.9379 32.2573 30.9379 32.6562L30.9455 32.8259C30.9846 33.2193 31.159 33.5891 31.441 33.8711C31.7231 34.1532 32.0931 34.3273 32.4867 34.3663L32.6566 34.3749H49.8397L50.0096 34.3663C50.4033 34.3273 50.7732 34.1532 51.0554 33.8711C51.3374 33.5891 51.5117 33.2193 51.5508 32.8259L51.5585 32.6562C51.5585 32.2003 51.3777 31.7625 51.0554 31.4401C50.7733 31.1582 50.4031 30.985 50.0096 30.946L49.8397 30.9374V29.8374C50.6007 29.8374 51.3267 30.14 51.8577 30.671C52.3877 31.2012 52.6809 31.9159 52.6809 32.6562C52.6809 33.3965 52.3878 34.1111 51.8577 34.6413C51.3267 35.1723 50.6007 35.4749 49.8397 35.4749H32.6566C31.8959 35.4749 31.1707 35.1721 30.6397 34.6413C30.1095 34.1111 29.8155 33.3965 29.8154 32.6562ZM49.8397 29.8374V30.9374H32.6566V29.8374H49.8397ZM36.6904 22.3437C36.6904 21.6032 36.9845 20.8887 37.5147 20.3585C38.0457 19.8275 38.7707 19.5249 39.5316 19.5249V20.6249L39.3617 20.6335C38.9683 20.6725 38.5981 20.8457 38.316 21.1276L38.202 21.2544C37.9514 21.5602 37.8129 21.9448 37.8129 22.3437L37.8205 22.5134C37.8596 22.9068 38.034 23.2766 38.316 23.5586C38.5981 23.8407 38.9681 24.0148 39.3617 24.0538L39.5316 24.0624H49.8441L50.014 24.0538C50.4073 24.0147 50.7767 23.8405 51.0586 23.5586C51.3407 23.2766 51.515 22.9068 51.5541 22.5134L51.5629 22.3437C51.5629 21.8878 51.381 21.45 51.0586 21.1276C50.7768 20.846 50.4071 20.6726 50.014 20.6335L49.8441 20.6249V19.5249C50.6049 19.525 51.3301 19.8276 51.861 20.3585C52.3911 20.8887 52.6853 21.6033 52.6853 22.3437C52.6853 23.084 52.3912 23.7986 51.861 24.3288C51.3301 24.8597 50.6049 25.1623 49.8441 25.1624H39.5316C38.7709 25.1624 38.0457 24.8596 37.5147 24.3288C36.9845 23.7986 36.6905 23.084 36.6904 22.3437ZM49.8441 19.5249V20.6249H39.5316V19.5249H49.8441Z" fill="#F3EFEF"/>
</svg>
