<svg width="74" height="74" viewBox="0 0 74 74" fill="none" xmlns="http://www.w3.org/2000/svg">
<path d="M58.5834 21.5833C58.5834 18.1916 55.8084 15.4166 52.4167 15.4166H46.25C44.5542 15.4166 43.1667 16.8041 43.1667 18.5C43.1667 20.1958 44.5542 21.5833 46.25 21.5833H52.4167V29.7541L41.6867 43.1666H30.8334V30.8333C30.8334 29.1375 29.4459 27.75 27.75 27.75H18.5C11.6859 27.75 6.16669 33.2691 6.16669 40.0833V46.25C6.16669 47.9458 7.55419 49.3333 9.25002 49.3333H12.3334C12.3334 54.4516 16.465 58.5833 21.5834 58.5833C26.7017 58.5833 30.8334 54.4516 30.8334 49.3333H41.6867C43.5675 49.3333 45.325 48.47 46.4967 47.0208L57.2267 33.6083C58.1209 32.4983 58.5834 31.1416 58.5834 29.7541V21.5833ZM21.5834 52.4166C19.8875 52.4166 18.5 51.0291 18.5 49.3333H24.6667C24.6667 51.0291 23.2792 52.4166 21.5834 52.4166Z" fill="#F3EFEF"/>
<path d="M18.5 18.5H27.75C29.4459 18.5 30.8334 19.8875 30.8334 21.5833C30.8334 23.2792 29.4459 24.6667 27.75 24.6667H18.5C16.8042 24.6667 15.4167 23.2792 15.4167 21.5833C15.4167 19.8875 16.8042 18.5 18.5 18.5ZM58.5834 40.0833C53.465 40.0833 49.3334 44.215 49.3334 49.3333C49.3334 54.4517 53.465 58.5833 58.5834 58.5833C63.7017 58.5833 67.8334 54.4517 67.8334 49.3333C67.8334 44.215 63.7017 40.0833 58.5834 40.0833ZM58.5834 52.4167C56.8875 52.4167 55.5 51.0292 55.5 49.3333C55.5 47.6375 56.8875 46.25 58.5834 46.25C60.2792 46.25 61.6667 47.6375 61.6667 49.3333C61.6667 51.0292 60.2792 52.4167 58.5834 52.4167Z" fill="#F3EFEF"/>
</svg>
