<svg width="57" height="57" viewBox="0 0 57 57" fill="none" xmlns="http://www.w3.org/2000/svg">
<g clip-path="url(#clip0_2560_181)">
<path fill-rule="evenodd" clip-rule="evenodd" d="M28.5 51.6563C32.5652 51.6622 36.5596 50.5929 40.0781 48.5569V40.9688C40.0781 38.8429 39.2336 36.8041 37.7304 35.3008C36.2272 33.7976 34.1884 32.9531 32.0625 32.9531H24.9375C22.8116 32.9531 20.7728 33.7976 19.2696 35.3008C17.7664 36.8041 16.9219 38.8429 16.9219 40.9688V48.5569C20.4404 50.5929 24.4348 51.6622 28.5 51.6563ZM45.4219 40.9688V44.3068C48.5024 41.009 50.5522 36.883 51.3193 32.4359C52.0863 27.9889 51.5373 23.4146 49.7396 19.2754C47.9419 15.1361 44.974 11.6124 41.2006 9.13725C37.4271 6.66214 33.0127 5.34354 28.5 5.34354C23.9873 5.34354 19.5729 6.66214 15.7994 9.13725C12.026 11.6124 9.05805 15.1361 7.26037 19.2754C5.46269 23.4146 4.91365 27.9889 5.68074 32.4359C6.44783 36.883 8.49762 41.009 11.5781 44.3068V40.9688C11.5771 38.2143 12.4275 35.5268 14.0129 33.2743C15.5983 31.0218 17.8412 29.3144 20.4345 28.386C19.0893 26.8387 18.2175 24.937 17.9232 22.9079C17.6289 20.8788 17.9244 18.8079 18.7746 16.9421C19.6248 15.0764 20.9938 13.4945 22.7182 12.3853C24.4426 11.2761 26.4497 10.6863 28.5 10.6863C30.5503 10.6863 32.5574 11.2761 34.2818 12.3853C36.0062 13.4945 37.3752 15.0764 38.2254 16.9421C39.0756 18.8079 39.3711 20.8788 39.0768 22.9079C38.7825 24.937 37.9107 26.8387 36.5655 28.386C39.1588 29.3144 41.4017 31.0218 42.9871 33.2743C44.5725 35.5268 45.4229 38.2143 45.4219 40.9688ZM28.5 57C36.0587 57 43.3078 53.9973 48.6525 48.6525C53.9973 43.3078 57 36.0587 57 28.5C57 20.9413 53.9973 13.6922 48.6525 8.34746C43.3078 3.00267 36.0587 0 28.5 0C20.9413 0 13.6922 3.00267 8.34746 8.34746C3.00267 13.6922 0 20.9413 0 28.5C0 36.0587 3.00267 43.3078 8.34746 48.6525C13.6922 53.9973 20.9413 57 28.5 57ZM33.8438 21.375C33.8438 22.7923 33.2807 24.1515 32.2786 25.1536C31.2765 26.1557 29.9173 26.7188 28.5 26.7188C27.0827 26.7188 25.7235 26.1557 24.7214 25.1536C23.7193 24.1515 23.1563 22.7923 23.1563 21.375C23.1563 19.9577 23.7193 18.5985 24.7214 17.5964C25.7235 16.5943 27.0827 16.0313 28.5 16.0313C29.9173 16.0313 31.2765 16.5943 32.2786 17.5964C33.2807 18.5985 33.8438 19.9577 33.8438 21.375Z" fill="#F3EFEF"/>
</g>
<defs>
<clipPath id="clip0_2560_181">
<rect width="57" height="57" fill="white"/>
</clipPath>
</defs>
</svg>
