<svg width="59" height="57" viewBox="0 0 59 57" fill="none" xmlns="http://www.w3.org/2000/svg">
<path d="M8.81171 20.8243C8.81171 15.3013 10.9779 10.0046 14.8338 6.09929C18.6897 2.19398 23.9194 0 29.3724 0C34.8254 0 40.0551 2.19398 43.911 6.09929C47.7668 10.0046 49.933 15.3013 49.933 20.8243V23.9033C54.9146 24.6262 58.7448 28.9665 58.7448 34.2113V34.955C58.7448 40.2354 54.2478 44.8644 48.9579 44.6175C46.7843 50.9242 41.2564 55.1754 35.2909 56.2523C33.9104 56.764 32.2773 56.523 30.841 56.523C29.6725 56.523 28.5518 56.0529 27.7256 55.216C26.8993 54.3792 26.4351 53.2441 26.4351 52.0607C26.4351 50.8772 26.8993 49.7422 27.7256 48.9053C28.5518 48.0685 29.6725 47.5983 30.841 47.5983C33.1702 47.5983 35.7491 47.2562 37.3235 49.41C41.1301 47.5745 44.0586 43.6982 44.0586 38.6736V20.8243C44.0586 16.8793 42.5113 13.0959 39.7571 10.3064C37.0029 7.51692 33.2674 5.94979 29.3724 5.94979C25.4774 5.94979 21.7419 7.51692 18.9877 10.3064C16.2335 13.0959 14.6862 16.8793 14.6862 20.8243V39.4174C14.6862 40.7981 14.1446 42.1223 13.1807 43.0986C12.2167 44.0749 10.9093 44.6234 9.54602 44.6234C7.01426 44.6234 4.58619 43.6048 2.79597 41.7916C1.00574 39.9784 3.38985e-07 37.5192 3.38985e-07 34.955V34.2113C-0.000634299 31.7071 0.889864 29.2865 2.50827 27.3933C4.12667 25.5001 6.36455 24.261 8.81171 23.9033V20.8243Z" fill="#F3EFEF"/>
</svg>
