<svg width="3474" height="712" viewBox="0 0 3474 712" fill="none" xmlns="http://www.w3.org/2000/svg">
<path d="M12.8815 510.404V430.682C62.5675 447.787 101.519 456.34 129.736 456.34C156.112 456.34 174.208 453.591 184.022 448.093C194.45 442.595 199.664 434.042 199.664 422.435C199.664 413.882 194.757 407.468 184.942 403.192C176.355 398.915 160.099 392.807 136.176 384.865C109.186 376.923 86.4904 368.676 68.0882 360.124C22.6961 339.964 0 307.281 0 262.075C0 231.53 12.2681 208.01 36.8044 191.516C61.3407 174.411 99.0653 165.858 149.978 165.858C175.128 165.858 205.491 170.135 241.069 178.687V252.911C202.424 242.526 172.367 237.333 150.898 237.333C126.362 237.333 108.266 239.777 96.6116 244.664C87.4105 248.94 82.81 255.966 82.81 265.74C82.81 275.514 88.6373 283.456 100.292 289.565C107.04 293.841 124.828 300.561 153.658 309.725L172.061 315.223C199.051 323.164 219.906 330.801 234.628 338.131C249.35 344.851 261.311 354.931 270.513 368.371C279.714 381.81 284.314 400.137 284.314 423.351C284.314 456.951 270.513 483.525 242.909 503.073C215.919 522.011 176.661 531.48 125.135 531.48C90.7843 531.48 53.3664 524.455 12.8815 510.404Z" fill="#5A2898"/>
<path d="M636.379 524.149H566.45L564.61 489.328C537.007 502.157 515.538 511.015 500.202 515.902C484.867 520.178 467.998 522.317 449.596 522.317C402.977 522.317 369.853 509.488 350.224 483.83C330.595 458.172 320.781 417.853 320.781 362.873V171.357H408.191V374.785C408.191 397.999 413.405 416.021 423.833 428.849C434.874 441.067 451.13 447.176 472.599 447.176C498.976 447.176 524.739 440.151 549.888 426.1V171.357H636.379V524.149Z" fill="#5A2898"/>
<path d="M673.011 523.233V19.2433H761.341V171.357C780.97 161.582 808.88 156.695 845.071 156.695C870.221 156.695 897.518 162.804 926.961 175.022C955.178 187.851 977.261 208.621 993.209 237.333C1009.16 265.435 1017.13 299.339 1017.13 339.048C1017.13 395.861 1001.18 440.762 969.286 473.75C938.003 506.128 893.837 522.317 836.79 522.317C805.507 522.317 774.223 513.153 742.939 494.826L742.019 523.233H673.011ZM926.961 343.629C926.961 264.824 892.917 225.421 824.829 225.421C798.452 225.421 777.29 229.392 761.341 237.333V436.18C778.517 447.787 798.759 453.591 822.069 453.591C855.806 453.591 881.569 444.427 899.358 426.1C917.76 407.163 926.961 379.672 926.961 343.629Z" fill="#5A2898"/>
<path d="M1066.88 510.404V430.682C1116.56 447.787 1155.51 456.34 1183.73 456.34C1210.11 456.34 1228.2 453.591 1238.02 448.093C1248.44 442.595 1253.66 434.042 1253.66 422.435C1253.66 413.882 1248.75 407.468 1238.94 403.192C1230.35 398.915 1214.09 392.807 1190.17 384.865C1163.18 376.923 1140.48 368.676 1122.08 360.124C1076.69 339.964 1053.99 307.281 1053.99 262.075C1053.99 231.53 1066.26 208.01 1090.8 191.516C1115.33 174.411 1153.06 165.858 1203.97 165.858C1229.12 165.858 1259.49 170.135 1295.06 178.687V252.911C1256.42 242.526 1226.36 237.333 1204.89 237.333C1180.36 237.333 1162.26 239.777 1150.61 244.664C1141.4 248.94 1136.8 255.966 1136.8 265.74C1136.8 275.514 1142.63 283.456 1154.29 289.565C1161.03 293.841 1178.82 300.561 1207.65 309.725L1226.05 315.223C1253.04 323.164 1273.9 330.801 1288.62 338.131C1303.34 344.851 1315.31 354.931 1324.51 368.371C1333.71 381.81 1338.31 400.137 1338.31 423.351C1338.31 456.951 1324.51 483.525 1296.9 503.073C1269.91 522.011 1230.66 531.48 1179.13 531.48C1144.78 531.48 1107.36 524.455 1066.88 510.404Z" fill="#5A2898"/>
<path d="M1660.01 183.269V252.911C1637.31 245.58 1620.44 240.693 1609.4 238.25C1598.98 235.806 1586.71 234.584 1572.6 234.584C1537.63 234.584 1510.95 243.442 1492.55 261.158C1474.76 278.874 1465.87 305.143 1465.87 339.964C1465.87 373.563 1475.37 401.054 1494.39 422.435C1514.02 443.205 1540.09 453.591 1572.6 453.591C1586.71 453.591 1598.98 452.369 1609.4 449.925C1620.44 447.482 1637.31 442.595 1660.01 435.264V504.906C1628.73 517.124 1594.68 523.233 1557.88 523.233C1502.67 523.233 1458.2 506.433 1424.46 472.834C1391.34 439.235 1374.77 394.945 1374.77 339.964C1374.77 284.983 1391.03 242.221 1423.54 211.676C1456.05 181.131 1500.83 165.858 1557.88 165.858C1598.36 165.858 1632.41 171.662 1660.01 183.269Z" fill="#5A2898"/>
<path d="M1696.45 523.233V262.075C1695.84 230.308 1712.71 207.399 1747.06 193.349C1781.41 178.687 1820.98 171.357 1865.75 171.357H1874.04C1885.08 171.357 1898.27 172.884 1913.6 175.938V262.075C1893.36 251.079 1869.43 245.58 1841.83 245.58C1823.43 245.58 1804.11 248.94 1783.86 255.66V523.233H1696.45ZM1694.61 175.022L1695.53 210.759C1697.99 204.039 1703.51 197.32 1712.1 190.6C1721.3 183.88 1731.72 178.687 1743.38 175.022H1694.61Z" fill="#5A2898"/>
<path d="M1964.5 523.233V171.357H2052.83V523.233H1964.5ZM1969.1 95.2999C1980.14 106.296 1993.33 111.794 2008.67 111.794C2024.61 111.794 2037.8 106.296 2048.23 95.2999C2059.27 84.3038 2064.79 71.1695 2064.79 55.897C2064.79 40.0137 2059.27 26.8795 2048.23 16.4942C2037.8 5.49807 2024.61 0 2008.67 0C1993.33 0 1980.14 5.49807 1969.1 16.4942C1958.06 26.8795 1952.54 40.0137 1952.54 55.897C1952.54 71.1695 1958.06 84.3038 1969.1 95.2999Z" fill="#5A2898"/>
<path d="M2352.89 171.357H2444.9L2313.32 523.233H2224.07L2087.9 171.357H2186.35L2270.08 430.682L2352.89 171.357Z" fill="#5A2898"/>
<path d="M2772.86 453.591V518.651C2739.74 527.815 2700.48 532.396 2655.09 532.396C2594.97 532.396 2547.13 515.902 2511.55 482.914C2476.59 449.314 2459.1 404.719 2459.1 349.127C2459.1 312.474 2466.77 280.096 2482.11 251.995C2497.44 224.505 2517.38 203.429 2541.91 188.767C2566.45 173.495 2593.44 165.858 2622.88 165.858C2675.64 165.858 2716.43 182.047 2745.26 214.425C2774.09 246.802 2788.5 291.703 2788.5 349.127V383.032H2548.35C2553.26 436.18 2592.83 462.754 2667.05 462.754C2713.67 462.754 2748.94 459.7 2772.86 453.591ZM2680.85 257.493C2667.36 242.221 2648.65 234.584 2624.72 234.584C2604.48 234.584 2587.31 242.831 2573.2 259.326C2559.09 275.209 2551.42 295.979 2550.19 321.637H2701.09C2701.09 294.147 2694.35 272.765 2680.85 257.493Z" fill="#5A2898"/>
<path d="M2825.03 523.233V262.075C2824.41 230.308 2841.28 207.399 2875.63 193.349C2909.98 178.687 2949.55 171.357 2994.33 171.357H3002.61C3013.65 171.357 3026.84 172.884 3042.17 175.938V262.075C3021.93 251.079 2998.01 245.58 2970.4 245.58C2952 245.58 2932.68 248.94 2912.44 255.66V523.233H2825.03ZM2823.19 175.022L2824.11 210.759C2826.56 204.039 2832.08 197.32 2840.67 190.6C2849.87 183.88 2860.3 178.687 2871.95 175.022H2823.19Z" fill="#5A2898"/>
<path d="M3230.17 525.982L3071.91 171.357H3172.2L3278.02 441.678L3381.99 171.357H3474L3248.57 712H3150.12L3230.17 525.982Z" fill="#5A2898"/>
</svg>
