<svg width="3474" height="1526" viewBox="0 0 3474 1526" fill="none" xmlns="http://www.w3.org/2000/svg">
<path d="M3278.02 1254.75L3381.99 984.423H3474L3248.57 1525.07H3150.12L3230.17 1339.05L3071.91 984.423H3172.2L3278.02 1254.75ZM2622.88 978.925C2675.64 978.925 2716.43 995.114 2745.26 1027.49C2774.09 1059.87 2788.5 1104.77 2788.5 1162.19V1196.1H2548.35C2553.26 1249.25 2592.83 1275.82 2667.05 1275.82C2713.67 1275.82 2748.94 1272.77 2772.86 1266.66V1331.72C2739.74 1340.88 2700.48 1345.46 2655.09 1345.46C2594.97 1345.46 2547.13 1328.97 2511.55 1295.98C2476.59 1262.38 2459.1 1217.78 2459.1 1162.19C2459.1 1125.54 2466.77 1093.16 2482.11 1065.06C2497.44 1037.57 2517.38 1016.49 2541.91 1001.83C2566.45 986.561 2593.44 978.925 2622.88 978.925ZM149.979 978.925C175.128 978.925 205.492 983.201 241.069 991.754V1065.98C202.425 1055.59 172.368 1050.4 150.898 1050.4C126.362 1050.4 108.266 1052.84 96.6113 1057.73C87.4104 1062.01 82.8096 1069.03 82.8096 1078.81C82.8097 1088.58 88.6373 1096.52 100.292 1102.63C107.04 1106.91 124.828 1113.63 153.658 1122.79L172.061 1128.29C199.05 1136.23 219.906 1143.87 234.628 1151.2C249.35 1157.92 261.312 1168 270.513 1181.44C279.714 1194.88 284.314 1213.2 284.314 1236.42C284.314 1270.02 270.512 1296.59 242.909 1316.14C215.919 1335.08 176.661 1344.55 125.135 1344.55C90.7841 1344.55 53.3665 1337.52 12.8818 1323.47V1243.75C62.5676 1260.85 101.519 1269.41 129.735 1269.41C156.112 1269.41 174.208 1266.66 184.022 1261.16C194.45 1255.66 199.664 1247.11 199.664 1235.5C199.664 1226.95 194.757 1220.53 184.942 1216.26C176.355 1211.98 160.099 1205.87 136.177 1197.93C109.187 1189.99 86.4901 1181.74 68.0879 1173.19C22.6958 1153.03 0 1120.35 0 1075.14C0.000112513 1044.6 12.2685 1021.08 36.8047 1004.58C61.341 987.477 99.066 978.925 149.979 978.925ZM1203.97 978.925C1229.12 978.925 1259.49 983.201 1295.06 991.754V1065.98C1256.42 1055.59 1226.36 1050.4 1204.89 1050.4C1180.36 1050.4 1162.26 1052.84 1150.61 1057.73C1141.4 1062.01 1136.8 1069.03 1136.8 1078.81C1136.8 1088.58 1142.63 1096.52 1154.29 1102.63C1161.03 1106.91 1178.82 1113.63 1207.65 1122.79L1226.05 1128.29C1253.04 1136.23 1273.9 1143.87 1288.62 1151.2C1303.34 1157.92 1315.31 1168 1324.51 1181.44C1333.71 1194.88 1338.31 1213.2 1338.31 1236.42C1338.31 1270.02 1324.51 1296.59 1296.9 1316.14C1269.91 1335.08 1230.66 1344.55 1179.13 1344.55C1144.78 1344.55 1107.36 1337.52 1066.88 1323.47V1243.75C1116.56 1260.85 1155.51 1269.41 1183.73 1269.41C1210.11 1269.41 1228.2 1266.66 1238.02 1261.16C1248.44 1255.66 1253.66 1247.11 1253.66 1235.5C1253.66 1226.95 1248.75 1220.53 1238.94 1216.26C1230.35 1211.98 1214.09 1205.87 1190.17 1197.93C1163.18 1189.99 1140.48 1181.74 1122.08 1173.19C1076.69 1153.03 1053.99 1120.35 1053.99 1075.14C1053.99 1044.6 1066.26 1021.08 1090.8 1004.58C1115.33 987.477 1153.06 978.925 1203.97 978.925ZM408.191 1187.85C408.191 1211.07 413.405 1229.09 423.833 1241.92C434.874 1254.13 451.13 1260.24 472.599 1260.24C498.975 1260.24 524.739 1253.22 549.889 1239.17V984.423H636.379V1337.22H566.45L564.61 1302.39C537.007 1315.22 515.537 1324.08 500.202 1328.97C484.867 1333.24 467.999 1335.38 449.597 1335.38C402.978 1335.38 369.854 1322.55 350.225 1296.9C330.596 1271.24 320.781 1230.92 320.781 1175.94V984.423H408.191V1187.85ZM761.341 984.423C780.97 974.649 808.88 969.762 845.071 969.762C870.221 969.762 897.518 975.87 926.961 988.088C955.178 1000.92 977.26 1021.69 993.209 1050.4C1009.16 1078.5 1017.13 1112.41 1017.13 1152.11C1017.13 1208.93 1001.18 1253.83 969.286 1286.82C938.002 1319.19 893.837 1335.38 836.79 1335.38C805.506 1335.38 774.223 1326.22 742.939 1307.89L742.019 1336.3H673.011V832.31H761.341V984.423ZM1557.88 978.925C1598.36 978.925 1632.41 984.728 1660.01 996.335V1065.98C1637.31 1058.65 1620.44 1053.76 1609.4 1051.32C1598.98 1048.87 1586.71 1047.65 1572.6 1047.65C1537.63 1047.65 1510.95 1056.51 1492.55 1074.22C1474.76 1091.94 1465.87 1118.21 1465.87 1153.03C1465.87 1186.63 1475.37 1214.12 1494.39 1235.5C1514.02 1256.27 1540.09 1266.66 1572.6 1266.66C1586.71 1266.66 1598.98 1265.44 1609.4 1262.99C1620.44 1260.55 1637.31 1255.66 1660.01 1248.33V1317.97C1628.73 1330.19 1594.68 1336.3 1557.88 1336.3C1502.67 1336.3 1458.2 1319.5 1424.46 1285.9C1391.34 1252.3 1374.77 1208.01 1374.77 1153.03C1374.77 1098.05 1391.03 1055.29 1423.54 1024.74C1456.05 994.197 1500.83 978.925 1557.88 978.925ZM1874.04 984.423C1885.08 984.423 1898.27 985.95 1913.6 989.005V1075.14C1893.36 1064.14 1869.43 1058.65 1841.83 1058.65C1823.43 1058.65 1804.11 1062.01 1783.86 1068.73V1336.3H1696.45V1075.14C1695.84 1043.37 1712.71 1020.47 1747.06 1006.42C1781.41 991.754 1820.98 984.423 1865.75 984.423H1874.04ZM2052.83 1336.3H1964.5V984.423H2052.83V1336.3ZM2270.08 1243.75L2352.89 984.423H2444.9L2313.32 1336.3H2224.07L2087.9 984.423H2186.35L2270.08 1243.75ZM3002.61 984.423C3013.65 984.423 3026.84 985.95 3042.17 989.005V1075.14C3021.93 1064.14 2998.01 1058.65 2970.4 1058.65C2952 1058.65 2932.68 1062.01 2912.44 1068.73V1336.3H2825.03V1075.14C2824.41 1043.37 2841.28 1020.47 2875.63 1006.42C2909.98 991.754 2949.55 984.423 2994.33 984.423H3002.61ZM824.829 1038.49C798.453 1038.49 777.289 1042.46 761.341 1050.4V1249.25C778.516 1260.85 798.759 1266.66 822.068 1266.66C855.806 1266.66 881.569 1257.49 899.357 1239.17C917.76 1220.23 926.961 1192.74 926.961 1156.7C926.961 1077.89 892.917 1038.49 824.829 1038.49ZM2624.72 1047.65C2604.48 1047.65 2587.31 1055.9 2573.2 1072.39C2559.09 1088.27 2551.42 1109.05 2550.19 1134.7H2701.09C2701.09 1107.21 2694.35 1085.83 2680.85 1070.56C2667.36 1055.29 2648.65 1047.65 2624.72 1047.65ZM1743.38 988.088C1731.73 991.753 1721.3 996.946 1712.1 1003.67C1703.51 1010.39 1697.99 1017.11 1695.53 1023.83L1694.61 988.088H1743.38ZM2871.95 988.088C2860.3 991.753 2849.87 996.946 2840.67 1003.67C2832.08 1010.39 2826.56 1017.11 2824.11 1023.83L2823.19 988.088H2871.95ZM2008.67 813.066C2024.61 813.066 2037.8 818.564 2048.23 829.561C2059.27 839.946 2064.79 853.081 2064.79 868.964C2064.79 884.236 2059.27 897.37 2048.23 908.366C2037.8 919.362 2024.61 924.86 2008.67 924.86C1993.33 924.86 1980.14 919.362 1969.1 908.366C1958.06 897.37 1952.54 884.236 1952.54 868.964C1952.54 853.081 1958.06 839.946 1969.1 829.561C1980.14 818.565 1993.33 813.066 2008.67 813.066ZM1848.37 284.795C1880.8 284.795 1907.09 311.086 1907.09 343.516V408.536C1907.09 481.754 1878 551.974 1826.23 603.746C1774.46 655.518 1704.24 684.603 1631.02 684.604C1557.8 684.603 1487.58 655.518 1435.81 603.745C1384.04 551.973 1354.95 481.753 1354.95 408.536V343.516C1354.95 311.086 1381.24 284.795 1413.67 284.795C1446.1 284.795 1472.39 311.085 1472.39 343.516V408.536C1472.39 450.606 1489.11 490.954 1518.86 520.702C1548.6 550.45 1588.95 567.163 1631.02 567.163C1673.09 567.163 1713.44 550.45 1743.19 520.702C1772.94 490.954 1789.65 450.606 1789.65 408.536V343.516C1789.65 311.085 1815.94 284.795 1848.37 284.795ZM1839.15 0C1912.36 0.000104093 1982.58 29.0868 2034.35 80.8594C2086.13 132.632 2115.21 202.851 2115.21 276.068L2115.21 346.808C2115.21 376.079 2091.48 399.809 2062.21 399.809H2050.77C2021.5 399.809 1997.77 376.079 1997.77 346.808V276.068C1997.77 233.998 1981.06 193.65 1951.31 163.901C1921.56 134.153 1881.22 117.441 1839.15 117.44C1797.08 117.441 1756.73 134.153 1726.98 163.901C1697.23 193.65 1680.52 233.998 1680.52 276.068V346.809C1680.52 376.079 1656.79 399.807 1627.52 399.808H1616.08C1586.81 399.808 1563.08 376.079 1563.08 346.809L1563.08 276.067C1563.08 202.85 1592.16 132.631 1643.94 80.8584C1695.71 29.0858 1765.93 0.000144369 1839.15 0Z" fill="#5A2898"/>
</svg>
